<?xml version="1.0" encoding="UTF-8" standalone="no"?>
<!-- Created with Inkscape (http://www.inkscape.org/) -->

<svg
   width="1920"
   height="1080"
   viewBox="0 0 1920 1080"
   version="1.1"
   id="svg5"
   inkscape:version="1.2.2 (b0a8486541, 2022-12-01)"
   sodipodi:docname="cubic-geeko.svg"
   xml:space="preserve"
   inkscape:export-filename="waves-l.png"
   inkscape:export-xdpi="96"
   inkscape:export-ydpi="96"
   xmlns:inkscape="http://www.inkscape.org/namespaces/inkscape"
   xmlns:sodipodi="http://sodipodi.sourceforge.net/DTD/sodipodi-0.dtd"
   xmlns="http://www.w3.org/2000/svg"
   xmlns:svg="http://www.w3.org/2000/svg"><sodipodi:namedview
     id="namedview7"
     pagecolor="#ffffff"
     bordercolor="#666666"
     borderopacity="1.0"
     inkscape:showpageshadow="2"
     inkscape:pageopacity="0.0"
     inkscape:pagecheckerboard="0"
     inkscape:deskcolor="#d1d1d1"
     inkscape:document-units="px"
     showgrid="false"
     inkscape:zoom="0.19853362"
     inkscape:cx="4190.7259"
     inkscape:cy="576.7285"
     inkscape:window-width="2560"
     inkscape:window-height="1371"
     inkscape:window-x="0"
     inkscape:window-y="0"
     inkscape:window-maximized="1"
     inkscape:current-layer="layer1" /><defs
     id="defs2"><inkscape:path-effect
       effect="tiling"
       id="path-effect1987"
       is_visible="true"
       lpeversion="1"
       unit="px"
       seed="1;1768036106"
       lpesatellites=""
       num_rows="4"
       num_cols="8"
       gapx="-36"
       gapy="0"
       offset="0"
       offset_type="true"
       scale="-100"
       rotate="360"
       mirrorrowsx="false"
       mirrorrowsy="false"
       mirrorcolsx="false"
       mirrorcolsy="false"
       mirrortrans="false"
       shrink_interp="false"
       split_items="false"
       link_styles="false"
       interpolate_scalex="false"
       interpolate_scaley="false"
       interpolate_rotatex="false"
       interpolate_rotatey="false"
       random_scale="true"
       random_rotate="true"
       random_gap_y="false"
       random_gap_x="false"
       transformorigin="rotate(45)" /><inkscape:path-effect
       effect="tiling"
       id="path-effect1983"
       is_visible="true"
       lpeversion="1"
       unit="px"
       seed="1;1500655381"
       lpesatellites=""
       num_rows="4"
       num_cols="7"
       gapx="-36"
       gapy="0"
       offset="0"
       offset_type="true"
       scale="-100"
       rotate="360"
       mirrorrowsx="false"
       mirrorrowsy="false"
       mirrorcolsx="false"
       mirrorcolsy="false"
       mirrortrans="false"
       shrink_interp="false"
       split_items="false"
       link_styles="false"
       interpolate_scalex="false"
       interpolate_scaley="false"
       interpolate_rotatex="false"
       interpolate_rotatey="false"
       random_scale="true"
       random_rotate="true"
       random_gap_y="false"
       random_gap_x="false"
       transformorigin="rotate(45)" /><inkscape:path-effect
       effect="tiling"
       id="path-effect1979"
       is_visible="true"
       lpeversion="1"
       unit="px"
       seed="1;2096165638"
       lpesatellites=""
       num_rows="4"
       num_cols="7"
       gapx="-36"
       gapy="0"
       offset="0"
       offset_type="true"
       scale="0"
       rotate="360"
       mirrorrowsx="false"
       mirrorrowsy="false"
       mirrorcolsx="false"
       mirrorcolsy="false"
       mirrortrans="false"
       shrink_interp="false"
       split_items="false"
       link_styles="false"
       interpolate_scalex="false"
       interpolate_scaley="false"
       interpolate_rotatex="false"
       interpolate_rotatey="false"
       random_scale="true"
       random_rotate="true"
       random_gap_y="false"
       random_gap_x="false"
       transformorigin="rotate(45)" /><inkscape:path-effect
       effect="tiling"
       id="path-effect1788"
       is_visible="true"
       lpeversion="1"
       unit="px"
       seed="1;1768036106"
       lpesatellites=""
       num_rows="4"
       num_cols="8"
       gapx="-36"
       gapy="0"
       offset="0"
       offset_type="true"
       scale="-100"
       rotate="360"
       mirrorrowsx="false"
       mirrorrowsy="false"
       mirrorcolsx="false"
       mirrorcolsy="false"
       mirrortrans="false"
       shrink_interp="false"
       split_items="false"
       link_styles="false"
       interpolate_scalex="false"
       interpolate_scaley="false"
       interpolate_rotatex="false"
       interpolate_rotatey="false"
       random_scale="true"
       random_rotate="true"
       random_gap_y="false"
       random_gap_x="false"
       transformorigin="rotate(45)" /><inkscape:path-effect
       effect="tiling"
       id="path-effect1782"
       is_visible="true"
       lpeversion="1"
       unit="px"
       seed="1;1500655381"
       lpesatellites=""
       num_rows="4"
       num_cols="7"
       gapx="-36"
       gapy="0"
       offset="0"
       offset_type="true"
       scale="-100"
       rotate="360"
       mirrorrowsx="false"
       mirrorrowsy="false"
       mirrorcolsx="false"
       mirrorcolsy="false"
       mirrortrans="false"
       shrink_interp="false"
       split_items="false"
       link_styles="false"
       interpolate_scalex="false"
       interpolate_scaley="false"
       interpolate_rotatex="false"
       interpolate_rotatey="false"
       random_scale="true"
       random_rotate="true"
       random_gap_y="false"
       random_gap_x="false"
       transformorigin="rotate(45)" /><inkscape:path-effect
       effect="tiling"
       id="path-effect1722"
       is_visible="true"
       lpeversion="1"
       unit="px"
       seed="1;2096165638"
       lpesatellites=""
       num_rows="4"
       num_cols="7"
       gapx="-36"
       gapy="0"
       offset="0"
       offset_type="true"
       scale="0"
       rotate="360"
       mirrorrowsx="false"
       mirrorrowsy="false"
       mirrorcolsx="false"
       mirrorcolsy="false"
       mirrortrans="false"
       shrink_interp="false"
       split_items="false"
       link_styles="false"
       interpolate_scalex="false"
       interpolate_scaley="false"
       interpolate_rotatex="false"
       interpolate_rotatey="false"
       random_scale="true"
       random_rotate="true"
       random_gap_y="false"
       random_gap_x="false"
       transformorigin="rotate(45)" /><inkscape:path-effect
       effect="tiling"
       id="path-effect19065"
       is_visible="true"
       lpeversion="1"
       unit="px"
       seed="1;1"
       lpesatellites=""
       num_rows="25"
       num_cols="1"
       gapx="-356.51603"
       gapy="6.0871621"
       offset="0"
       offset_type="false"
       scale="0"
       rotate="6"
       mirrorrowsx="false"
       mirrorrowsy="false"
       mirrorcolsx="true"
       mirrorcolsy="true"
       mirrortrans="false"
       shrink_interp="false"
       split_items="false"
       link_styles="false"
       interpolate_scalex="false"
       interpolate_scaley="true"
       interpolate_rotatex="false"
       interpolate_rotatey="true"
       random_scale="false"
       random_rotate="false"
       random_gap_y="false"
       random_gap_x="false"
       transformorigin="" /><inkscape:path-effect
       effect="interpolate"
       id="path-effect19063"
       is_visible="true"
       lpeversion="1"
       trajectory="M 0,0 V 0"
       equidistant_spacing="true"
       steps="5" /><clipPath
       id="vlpa"><path
         d="m0 200.3h320v-200.3h-320v200.3z"
         id="path3040" /></clipPath><filter
       inkscape:collect="always"
       style="color-interpolation-filters:sRGB"
       id="filter1381"
       x="-0.046031109"
       y="-0.034502421"
       width="1.0920622"
       height="1.0690048"><feGaussianBlur
         inkscape:collect="always"
         stdDeviation="16.904334"
         id="feGaussianBlur1383" /></filter><filter
       inkscape:collect="always"
       style="color-interpolation-filters:sRGB"
       id="filter1415"
       x="-0.038762217"
       y="-0.082160833"
       width="1.0775244"
       height="1.1643217"><feGaussianBlur
         inkscape:collect="always"
         stdDeviation="4.4755733"
         id="feGaussianBlur1417" /></filter></defs><g
     inkscape:label="Capa 1"
     inkscape:groupmode="layer"
     id="layer1"><rect
       style="opacity:1;fill:#3584e4;fill-opacity:1;stroke-width:20;stroke-linecap:round"
       id="rect234"
       width="1920"
       height="1080"
       x="0"
       y="0"
       rx="1.8656181"
       ry="1.68121"
       inkscape:export-filename="cubic-geeko-l.png"
       inkscape:export-xdpi="96"
       inkscape:export-ydpi="96" /><path
       style="opacity:0.31110734;fill:#ffffff;fill-opacity:0.315194;stroke:none;stroke-width:7.559;stroke-linejoin:bevel;stroke-dasharray:none;stroke-dashoffset:0;stroke-opacity:1"
       id="rect1720"
       width="221.28516"
       height="221.28516"
       x="1255.5789"
       y="-1320.4636"
       transform="rotate(45,-847.41006,-2034.2393)"
       inkscape:path-effect="#path-effect1722"
       class="UnoptimicedTransforms"
       d="m 1210.5027,-1194.4841 140.3818,-171.0557 171.0557,140.3818 -140.3818,171.0557 z m 204.2225,-158.4523 94.6116,-200.0395 200.0395,94.6116 -94.6116,200.0394 z m 439.4215,-371.8976 27.0877,219.621 -219.621,27.0877 -27.0877,-219.621 z m -13.7619,35.419 5.4306,-221.2185 221.2185,5.4306 -5.4306,221.2185 z m 462.6195,-334.2495 -122.9394,183.9919 -183.9919,-122.9395 122.9395,-183.9919 z m -113.9201,-172.9808 163.9615,-148.6061 148.6061,163.9615 -163.9615,148.6061 z m 422.4648,-327.9164 69.4131,210.1165 -210.1165,69.4131 -69.4131,-210.1165 z m -1058.3257,1383.3555 186.9536,118.3871 -118.387,186.9535 -186.9536,-118.38703 z m 338.0066,-156.4836 5.4306,221.2185 -221.2185,5.4307 -5.4307,-221.2186 z m 229.3845,-149.4052 -74.5487,208.3497 -208.3497,-74.5487 74.5487,-208.3497 z m 184.482,-41.9975 -217.0332,43.1706 -43.1706,-217.0332 217.0332,-43.1706 z m -84.0072,-328.1821 195.1561,-104.3131 104.3131,195.1561 -195.1561,104.3131 z m 199.5765,-206.7214 202.301,-89.6739 89.6739,202.301 -202.301,89.6739 z m 446.8971,-255.454 10.8579,221.0186 -221.0186,10.8579 -10.8579,-221.0186 z m -903.9924,1489.24002 -131.8194,177.73791 -177.7379,-131.81942 131.8194,-177.7379 z m -84.629,-79.65966 32.4693,-218.89006 218.89,32.4693 -32.4692,218.89003 z m 477.5572,-300.55056 -144.5374,167.5591 -167.5591,-144.5374 144.5375,-167.5591 z m -56.4856,-60.9641 -27.0876,-219.621 219.6209,-27.0877 27.0877,219.621 z m 385.3064,-193.504 -218.8901,-32.4693 32.4693,-218.8901 218.8901,32.4693 z m 110.2966,-165.2252 -163.9614,-148.6061 148.606,-163.9614 163.9615,148.606 z m 309.1063,-252.8482 -220.2196,21.6898 -21.6898,-220.2196 220.2197,-21.6898 z m -940.4347,1377.43893 -214.6535,53.76791 -53.7679,-214.65352 214.6535,-53.76791 z m 212.4228,-234.53898 -192.5373,109.07106 -109.0711,-192.53734 192.5374,-109.07105 z m 200.3206,-256.71632 -136.1416,174.44936 -174.4494,-136.14162 136.1417,-174.44937 z m 187.8593,-229.38933 -94.6116,200.03939 -200.0394,-94.61159 94.6116,-200.0394 z m 97.5863,-291.6902 99.4923,197.6573 -197.6572,99.4923 -99.4923,-197.6573 z m 69.622,88.8899 -59.0196,-213.2693 213.2693,-59.0196 59.0196,213.2693 z m 249.9949,-177.1951 -131.8194,-177.7379 177.7379,-131.8194 131.8194,177.7379 z"
       sodipodi:type="rect" /><path
       id="path1323"
       style="fill:#000000;fill-opacity:0.31519395;stroke:none;stroke-width:7.559;stroke-linejoin:bevel;stroke-dasharray:none;stroke-dashoffset:0;stroke-opacity:1;filter:url(#filter1381)"
       d="m 81.376953,-33.304687 -110.695312,127.5 50.705078,159.869137 -85.189453,63.8789 104.90625,79.32813 -59.451172,208.26562 98.964844,56.38672 40.904302,-9.39062 55.02148,88.29687 125.58203,-97.72655 54.79492,-15.08008 6.73047,27.14453 -112.14062,462.50393 244.80859,24.8945 -9.5293,-433.33397 -48.59179,-190.13086 122.62109,35.34765 41.70313,-71.06445 130.26953,40.00195 84.77539,-130.11523 -102.35352,-85.42969 59.30274,-119 -163.37305,-56.84375 -2.66211,-79.125003 -211.00586,13.77539 -77.15039,-71.609374 -111.08398,65.0625 z" /><path
       style="opacity:0.71439085;fill:#ffffff;fill-opacity:0.315194;stroke:none;stroke-width:7.559;stroke-linejoin:bevel;stroke-dasharray:none;stroke-dashoffset:0;stroke-opacity:1"
       id="path1778"
       width="221.28516"
       height="221.28516"
       x="1255.5789"
       y="-1320.4636"
       transform="rotate(45,-612.8854,-1968.0023)"
       inkscape:path-effect="#path-effect1782"
       class="UnoptimicedTransforms"
       d="m 1327.0978,-1100.4779 -70.2195,-148.4667 148.4667,-70.2196 70.2196,148.4668 z m 205.8962,-292.2925 16.1768,-41.9367 41.9367,16.1768 -16.1768,41.9367 z m 188.4757,-159.6156 -12.6833,-85.504 85.504,-12.6833 12.6833,85.5039 z m 208.3815,-187.3243 -33.7405,-81.4569 81.4568,-33.7405 33.7406,81.4569 z m 368.3573,-283.0003 -119.0975,178.2422 -178.2422,-119.0976 119.0976,-178.2422 z m 56.9006,-182.5091 6.511,25.9932 -25.9932,6.511 -6.511,-25.9932 z m 124.0977,-146.4426 28.8559,-95.1251 95.1251,28.8559 -28.8559,95.1251 z m -798.437,1370.00592 -100.1427,86.38371 -86.3837,-100.14273 100.1427,-86.3837 z m 99.0575,-211.17922 11.979,4.9618 -4.9618,11.979 -11.979,-4.9618 z m 193.2488,-211.6679 30.3981,18.2199 -18.2199,30.3981 -30.3981,-18.2199 z m 207.681,-182.3013 5.0184,16.5435 -16.5435,5.0184 -5.0184,-16.5435 z m 202.0075,-165.1264 -31.8627,-7.9812 7.9812,-31.8626 31.8626,7.9811 z m 140.0399,-181.5315 9.6289,-78.0684 78.0684,9.6289 -9.6289,78.0684 z m 317.8905,-231.9691 -76.2925,80.1326 -80.1326,-76.2926 76.2926,-80.1325 z m -1150.3861,1469.19698 47.4669,-189.49881 189.4988,47.46698 -47.4669,189.49881 z m 358.9312,-266.84522 -44.619,44.61903 -44.6191,-44.61903 44.6191,-44.61906 z m 129.6091,-211.84986 37.6217,-5.5807 5.5807,37.6218 -37.6218,5.5806 z m 245.8189,-86.2246 -121.9725,-65.1957 65.1957,-121.9726 121.9725,65.1957 z m 155.1704,-189.9273 -87.2157,-111.7566 111.7566,-87.2158 87.2158,111.7567 z m 225.1091,-309.2746 -3.0502,30.9684 -30.9683,-3.0502 3.0501,-30.9683 z m 157.2105,-141.4416 -18.8191,-62.0381 62.0381,-18.8191 18.8191,62.0381 z m -894.6798,1271.45619 46.9748,121.77764 -121.7776,46.97482 -46.9748,-121.77764 z m 157.7262,-109.759 -0.9924,-2.39579 2.3958,-0.99237 0.9924,2.39579 z m 232.4648,-207.46762 -25.9895,45.87804 -45.8781,-25.98959 25.9896,-45.87803 z m 182.136,-118.56217 -89.5634,-45.0824 45.0824,-89.5635 89.5635,45.0825 z m 114.9294,-264.5922 60.0995,-57.2194 57.2194,60.0994 -60.0995,57.2194 z m 221.0504,-269.825 108.8741,41.9973 -41.9974,108.8741 -108.874,-41.9974 z m 332.4344,-51.4598 -172.1005,34.2329 -34.233,-172.1006 172.1006,-34.2329 z"
       sodipodi:type="rect" /><path
       style="opacity:0.16773098;fill:#ffffff;fill-opacity:0.315194;stroke:none;stroke-width:7.559;stroke-linejoin:bevel;stroke-dasharray:none;stroke-dashoffset:0;stroke-opacity:1"
       id="path1784"
       width="221.28516"
       height="221.28516"
       x="1255.5789"
       y="-1320.4636"
       transform="rotate(45,-813.75963,-2081.5665)"
       inkscape:path-effect="#path-effect1788"
       class="UnoptimicedTransforms"
       d="m 1491.5215,-1209.821 -125.3001,125.3 -125.3,-125.3 125.3,-125.3001 z m -77.8902,-210.4474 163.0375,-133.8014 133.8014,163.0375 -163.0375,133.8014 z m 444.613,-196.0989 -85.4766,115.2519 -115.2519,-85.4766 85.4766,-115.252 z m 108.8472,-179.6237 -14.7001,12.0641 -12.0641,-14.7001 14.7001,-12.0641 z m 175.6774,-128.4121 -61.9655,-75.505 75.5051,-61.9654 61.9654,75.505 z m 182.8014,-213.2408 -31.526,-71.1214 71.1214,-31.526 31.526,71.1214 z m 295.3366,-287.2755 -39.5871,119.8321 -119.8321,-39.5872 39.5872,-119.832 z m 79.9293,-286.4823 166.9659,94.585 -94.585,166.966 -166.966,-94.5851 z m -1175.914,1741.85058 43.5996,-81.56918 81.5692,43.5996 -43.5996,81.56919 z m 272.2251,-121.70508 -106.9204,-79.2976 79.2976,-106.9204 106.9204,79.2976 z m 148.2161,-221.7857 -33.3508,-100.9544 100.9544,-33.3508 33.3508,100.9544 z m 152.4413,-367.0604 181.2683,26.8886 -26.8886,181.2684 -181.2684,-26.8887 z m 350.0094,-21.9709 -146.7702,7.2103 -7.2103,-146.7701 146.7701,-7.2104 z m 172.8453,-214.191 -105.4245,2.588 -2.588,-105.4245 105.4245,-2.588 z m 235.6426,-138.4846 -202.5825,-14.9434 14.9434,-202.5825 202.5825,14.9434 z m 19.46,-387.142 h 165.0995 v 165.0995 H 2875.762 Z m -1097.7998,1616.96197 88.5076,26.84851 -26.8485,88.50768 -88.5076,-26.84851 z m 199.174,-118.79422 8.1279,-46.84181 46.8418,8.12782 -8.1278,46.84181 z m 263.5085,-255.38065 v 80.3887 h -80.3887 l 0,-80.3887 z m 175.4293,-255.1479 79.7186,119.3073 -119.3073,79.7185 -79.7185,-119.3072 z m 182.2324,-90.4159 -12.0979,0.297 -0.2969,-12.0979 12.0978,-0.297 z m 221.51,-138.3989 -95.209,-31.4528 31.4528,-95.209 95.209,31.4528 z m 218.089,-151.6068 -161.6912,-53.4156 53.4156,-161.6912 161.6912,53.4156 z m 114.1859,-262.2177 -13.6594,-68.6706 68.6706,-13.6595 13.6595,68.6707 z m -1114.2042,1562.61417 -19.499,-3.87861 3.8786,-19.49908 19.499,3.87861 z m 127.3288,-143.77309 -3.0547,-124.43542 124.4354,-3.05471 3.0547,124.43541 z m 221.9303,-251.80708 26.822,-42.35666 42.3567,26.82206 -26.8221,42.35666 z m 218.3112,-121.9751 -69.5141,-93.7289 93.729,-69.5142 69.5141,93.729 z m 263.3387,-160.3132 -172.5396,-61.7356 61.7357,-172.5397 172.5396,61.7357 z m 164.3813,-340.7362 3.8153,51.7232 -51.7232,3.8153 -3.8153,-51.7232 z m 232.3706,-72.5277 -156.0276,-35.0372 35.0372,-156.0275 156.0275,35.0372 z m 106.7537,-234.5822 -28.1991,-85.3598 85.3599,-28.1991 28.199,85.3598 z"
       sodipodi:type="rect" /><path
       style="fill:#33d17a;fill-opacity:1;stroke:none;stroke-width:7.559;stroke-linejoin:bevel;stroke-dasharray:30.236, 15.118, 7.559, 15.118;stroke-opacity:0.665537"
       d="M 413.40102,490.0558 543.71359,527.6212 585.41625,456.55612 715.6848,496.55877 800.46005,366.44426 698.10697,281.01432 757.40947,162.01319 594.03737,105.16993 591.37456,26.044908 380.36899,39.821091 303.21907,-31.788652 192.13484,33.274103 64.270515,-60.133258 -46.423096,67.367955 4.2802996,227.2355 l -85.1878656,63.87989 104.905853,79.32859 -59.451052,208.26573 98.964049,56.38663 40.904916,-9.39136 55.02221,88.29631 125.58113,-97.72617 65.50839,-18.02897 z"
       id="path1320" /><rect
       style="opacity:1;fill:#25a268;fill-opacity:0.99607843;stroke-width:20;stroke-linecap:round"
       id="rect8362"
       width="1920"
       height="1080"
       x="3317.5229"
       y="0"
       rx="1.8656181"
       ry="1.68121"
       inkscape:export-filename="pentagon-d.png"
       inkscape:export-xdpi="96"
       inkscape:export-ydpi="96" /><g
       id="g6618"
       transform="translate(-2409.6652,-2107.4876)"><path
         style="fill:#1a5fb4;fill-opacity:1;stroke-width:7.55906"
         d="m 2128.3008,254.09375 -229.8594,-16.82032 -145.3282,296.61328 299.9962,87.91797 41.1718,-208.66016 -163.293,-105.12109 -89.4765,175.5664 167.5313,65.70313 17.9492,-87.37109 -86.4336,-57.00391 7.0117,43.57032 39.832,24.69531 -7.4766,32.89844 -79.1913,-35.8125 34.8086,-97.83985 109.4414,73.60938 -22.1329,128.86718 -205.3281,-77.86718 106.8164,-213.19531 190.6836,79.59375 -7.5078,258.96484 107.9141,1.14453 -0.3829,-16.79687 235.7579,-3.59766 1.914,20.70312 42.461,-2.08984 -50.6836,-361.22266 z"
         id="path1412"
         sodipodi:nodetypes="cccccccccccccccccccccccccccc" /><path
         style="fill:#26a269;fill-opacity:1;stroke-width:7.55906"
         d="m 2185.5496,205.02178 340.2531,22.46799 114.1961,255.60902 -404.8204,74.56681 z"
         id="path397"
         sodipodi:nodetypes="ccccc" /><circle
         style="fill:#ffffff;fill-opacity:1;stroke-width:7.55906"
         id="path1153"
         cx="2305.533"
         cy="304.37399"
         r="55.708984" /><path
         style="fill:#e1a20a;fill-opacity:1;stroke-width:7.55906"
         d="m 2201.4709,394.13106 127.7316,36.13357 276.0824,-21.67917 -281.4354,54.30732 -116.4374,-14.88225 z"
         id="path1293" /><circle
         style="fill:#26a269;fill-opacity:1;stroke-width:7.55906"
         id="path1347"
         cx="2330.2212"
         cy="288.3381"
         r="13.22191" /><path
         id="path2794"
         style="fill:#f66151;fill-opacity:1;stroke-width:7.55906"
         d="m 2033.3945,247.14844 11.8535,87.16406 69.7754,29.125 -7.5078,258.96484 107.9141,1.14454 -0.3828,-16.79688 16.4843,-0.25195 -170.5429,-357.33008 z m 18.8985,138.96484 19.3086,141.97461 22.6796,-114.94336 z" /><path
         id="path3417"
         style="fill:#a41d2d;fill-opacity:1;stroke-width:7.55906"
         d="m 2013.2852,245.67773 -14.4063,69.2793 56.4141,23.54883 -9.541,-90.45313 z m -21.1504,101.70899 -11.5118,55.36328 64.3614,43.28906 -22.1328,128.86719 -72.3243,-27.42773 -8.6757,41.7207 111.2578,32.60547 20.8984,-105.91016 -13.1074,-124.23828 z m -16.7403,80.50586 -6.9707,33.52344 18.9785,11.76757 -7.4765,32.89844 -19.0039,-8.59375 -6.3321,30.44922 54.4532,21.35547 17.9492,-87.37109 z" /><path
         id="path4247"
         style="fill:#e5a50a;fill-opacity:1;stroke-width:7.55906"
         d="m 1980.7617,243.29688 -29.0078,51.99023 51.2832,21.40625 14.2481,-70.72266 z m -39.7246,71.19531 -95.2773,170.76367 114.291,44.82226 6.0898,-30.23046 -65.4062,-29.57813 34.8086,-97.83984 49.5527,33.32812 11.2168,-55.68164 z m -0.4785,90.42578 7.0117,43.57031 25.707,15.9375 6.7442,-33.48242 z m -105.1563,98.90039 -25.9824,46.57031 138.3692,40.55078 8.3281,-41.33984 z" /><path
         id="path6457"
         style="fill:#26a269;fill-opacity:1;stroke-width:7.55906"
         d="m 1936.7871,240.08008 -73.1953,68.32031 -110.4785,225.48633 60.0625,17.60156 25.873,-46.28711 -21.5254,-8.16211 106.8164,-213.19531 31.168,13.00977 29.7539,-53.22657 z m -5.7988,67.94336 -89.4766,175.5664 7.8887,3.09375 95.0293,-170.00781 z" /></g><g
       id="g12485"><path
         style="fill:#99c1f1;fill-opacity:1;stroke-width:7.55906"
         d="m 2290.4961,-544.71874 -229.8594,-16.82032 -145.3282,296.61328 299.9962,87.91797 41.1718,-208.66016 -163.293,-105.12109 -89.4765,175.5664 167.5313,65.70313 17.9492,-87.37109 -86.4336,-57.00391 7.0117,43.57032 39.832,24.69531 -7.4766,32.89844 -79.1913,-35.8125 34.8086,-97.83985 109.4414,73.60938 -22.1329,128.86718 -205.3281,-77.86718 106.8164,-213.19531 190.6836,79.59375 -7.5078,258.96484 107.9141,1.14453 -0.3829,-16.79687 235.7579,-3.59766 1.914,20.70312 42.461,-2.08984 -50.6836,-361.22266 z"
         id="path6620"
         sodipodi:nodetypes="cccccccccccccccccccccccccccc" /><path
         style="fill:#8ff0a4;fill-opacity:1;stroke-width:7.55906"
         d="m 2347.7449,-593.79071 340.2531,22.46799 114.1961,255.60902 -404.8204,74.56681 z"
         id="path6622"
         sodipodi:nodetypes="ccccc" /><circle
         style="fill:#ffffff;fill-opacity:1;stroke-width:7.55906"
         id="circle6624"
         cx="2467.7283"
         cy="-494.43851"
         r="55.708984" /><circle
         style="fill:#8ff0a4;fill-opacity:1;stroke-width:7.55906"
         id="circle6628"
         cx="2492.4165"
         cy="-510.4744"
         r="13.22191" /><path
         id="path6630"
         style="fill:#f66151;fill-opacity:1;stroke-width:7.55906"
         d="m 2195.5898,-551.66405 11.8535,87.16406 69.7754,29.125 -7.5078,258.96484 107.9141,1.14454 -0.3828,-16.79688 16.4843,-0.25195 -170.5429,-357.33008 z m 18.8985,138.96484 19.3086,141.97461 22.6796,-114.94336 z" /><path
         id="path6632"
         style="fill:#ffbe6f;fill-opacity:1;stroke-width:7.55906"
         d="m 2175.4805,-553.13476 -14.4063,69.2793 56.4141,23.54883 -9.541,-90.45313 z m -21.1504,101.70899 -11.5118,55.36328 64.3614,43.28906 -22.1328,128.86719 -72.3243,-27.42773 -8.6757,41.7207 111.2578,32.60547 20.8984,-105.91016 -13.1074,-124.23828 z m -16.7403,80.50586 -6.9707,33.52344 18.9785,11.76757 -7.4765,32.89844 -19.0039,-8.59375 -6.3321,30.44922 54.4532,21.35547 17.9492,-87.37109 z" /><path
         id="path6634"
         style="fill:#f9f06b;fill-opacity:1;stroke-width:7.55906"
         d="m 2142.957,-555.51561 -29.0078,51.99023 51.2832,21.40625 14.2481,-70.72266 z m -39.7246,71.19531 -95.2773,170.76367 114.291,44.82226 6.0898,-30.23046 -65.4062,-29.57813 34.8086,-97.83984 49.5527,33.32812 11.2168,-55.68164 z m -0.4785,90.42578 7.0117,43.57031 25.707,15.9375 6.7442,-33.48242 z m -105.1563,98.90039 -25.9824,46.57031 138.3692,40.55078 8.3281,-41.33984 z" /><path
         id="path6636"
         style="fill:#8ff0a4;fill-opacity:1;stroke-width:7.55906"
         d="m 2098.9824,-558.73241 -73.1953,68.32031 -110.4785,225.48633 60.0625,17.60156 25.873,-46.28711 -21.5254,-8.16211 106.8164,-213.19531 31.168,13.00977 29.7539,-53.22657 z m -5.7988,67.94336 -89.4766,175.5664 7.8887,3.09375 95.0293,-170.00781 z" /><path
         style="fill:#ffffff;fill-opacity:1;stroke-width:7.55906"
         d="m 2765.209,-453.00073 c -102.0288,51.77211 -376.5373,130.59684 -376.5373,130.59684 l 414.4025,-37.73127 z"
         id="path6649"
         sodipodi:nodetypes="cccc" /></g><g
       id="g12601"
       transform="matrix(0.63427724,0,0,0.63427724,-34.110579,238.74046)"><path
         style="fill:#1a5fb4;fill-opacity:1;stroke-width:7.55906"
         d="m 2266.7774,-1166.7812 -229.8594,-16.8204 -145.3282,296.61332 299.9962,87.91797 41.1718,-208.66019 -163.293,-105.1211 -89.4765,175.56644 167.5313,65.70313 17.9492,-87.37109 -86.4336,-57.00388 7.0117,43.57029 39.832,24.69531 -7.4766,32.89844 -79.1913,-35.8125 34.8086,-97.83984 109.4414,73.60937 -22.1329,128.86718 -205.3281,-77.86718 106.8164,-213.19527 190.6836,79.5937 -7.5078,258.96485 107.9141,1.14453 -0.3829,-16.79687 235.7579,-3.59766 1.914,20.70312 42.461,-2.08984 -50.6836,-361.22263 z"
         id="path12583"
         sodipodi:nodetypes="cccccccccccccccccccccccccccc" /><path
         style="fill:#26a269;fill-opacity:1;stroke-width:7.55906"
         d="m 2324.0262,-1215.8532 340.2531,22.468 114.1961,255.609 -404.8204,74.56681 z"
         id="path12585"
         sodipodi:nodetypes="ccccc" /><circle
         style="fill:#ffffff;fill-opacity:1;stroke-width:7.55906"
         id="circle12587"
         cx="2444.0095"
         cy="-1116.501"
         r="55.708984" /><circle
         style="fill:#26a269;fill-opacity:1;stroke-width:7.55906"
         id="circle12589"
         cx="2468.6978"
         cy="-1132.5369"
         r="13.22191" /><path
         id="path12591"
         style="fill:#a51d2d;fill-opacity:1;stroke-width:7.55906"
         d="m 2171.8711,-1173.7265 11.8535,87.164 69.7754,29.125 -7.5078,258.96485 107.9141,1.14454 -0.3828,-16.79688 16.4843,-0.25195 -170.5429,-357.33006 z m 18.8985,138.9648 19.3086,141.9746 22.6796,-114.9434 z" /><path
         id="path12593"
         style="fill:#f66151;fill-opacity:1;stroke-width:7.55906"
         d="m 2151.7618,-1175.1973 -14.4063,69.2793 56.4141,23.5489 -9.541,-90.4532 z m -21.1504,101.709 -11.5118,55.3633 64.3614,43.28907 -22.1328,128.86719 -72.3243,-27.42773 -8.6757,41.7207 111.2578,32.60547 20.8984,-105.91016 -13.1074,-124.23824 z m -16.7403,80.50589 -6.9707,33.52344 18.9785,11.76757 -7.4765,32.89844 -19.0039,-8.59375 -6.3321,30.44922 54.4532,21.35547 17.9492,-87.37109 z" /><path
         id="path12595"
         style="fill:#e5a50a;fill-opacity:1;stroke-width:7.55906"
         d="m 2119.2383,-1177.5781 -29.0078,51.9902 51.2832,21.4063 14.2481,-70.7227 z m -39.7246,71.1953 -95.2773,170.76367 114.291,44.82226 6.0898,-30.23046 -65.4062,-29.57813 34.8086,-97.83984 49.5527,33.3281 11.2168,-55.6816 z m -0.4785,90.4258 7.0117,43.57029 25.707,15.9375 6.7442,-33.48242 z m -105.1563,98.90037 -25.9824,46.57031 138.3692,40.55078 8.3281,-41.33984 z" /><path
         id="path12597"
         style="fill:#26a269;fill-opacity:1;stroke-width:7.55906"
         d="m 2075.2637,-1180.7949 -73.1953,68.3203 -110.4785,225.48633 60.0625,17.60156 25.873,-46.28711 -21.5254,-8.16211 106.8164,-213.19527 31.168,13.0097 29.7539,-53.2265 z m -5.7988,67.9434 -89.4766,175.56635 7.8887,3.09375 95.0293,-170.0078 z" /><path
         style="fill:#ffffff;fill-opacity:1;stroke-width:7.55906"
         d="m 2741.4903,-1075.0632 c -102.0288,51.7721 -376.5373,130.59681 -376.5373,130.59681 l 414.4025,-37.73127 z"
         id="path12599"
         sodipodi:nodetypes="cccc" /></g><path
       id="path447"
       style="fill:#f5c211;stroke:none;stroke-width:7.559;stroke-linejoin:bevel;stroke-dasharray:30.236, 15.118, 7.559, 15.118;stroke-opacity:0.665537;fill-opacity:1"
       d="M 221.39258 123.56836 L 299.9375 440.36133 L 181.99609 582.75391 L 59.544922 561.16406 L 188.57617 617.03906 L 323.50977 535.43555 L 346.54492 628.33984 L 234.4043 1090.8438 L 479.21289 1115.7383 L 469.68359 682.4043 L 401.06055 413.89648 L 569.59375 353.49805 L 743.43555 411.41406 L 572.34961 308.39648 L 379.29688 358.48242 L 354.10352 278.66602 L 525.79492 158.66797 L 343.39258 238.15625 L 337.23633 132.375 L 299.25195 213.23438 L 221.39258 123.56836 z " /><path
       id="path1385"
       style="opacity:0.722215;mix-blend-mode:normal;fill:#000000;fill-opacity:1;stroke-width:2.3595;filter:url(#filter1415)"
       d="m 525.55469,212.94727 2.21289,15.72851 -20.08399,-0.41016 -21.00976,-1.5371 -4.75586,-0.34766 v -0.002 l -3.85743,-0.28125 -5.02929,-0.36719 -1.18555,-0.0879 -0.0625,-0.004 -8.74805,-0.64062 -15.13086,-1.10743 -11.96875,-0.875 -10.87695,22.20118 -34.48633,70.38281 17.57617,5.15039 v 0.002 l 40.66211,11.91602 2.5293,0.74023 32.875,9.63477 5.77149,-29.25195 0.43945,-2.22266 0.3125,-1.58398 v -0.002 l 6.32812,-32.07031 -10.41992,-6.70703 -20.16015,-12.97852 v -0.002 l -16.19532,-10.42383 -4.19531,-2.70117 -27.92969,54.80078 1.32618,0.51953 0.48046,0.18946 0.65625,0.25781 32.74805,12.84375 1.78906,0.70117 15.29297,5.99805 5.60352,-27.27344 -14.66211,-9.66797 v -0.002 l -12.31836,-8.12305 2.18945,13.59961 8.02344,4.97461 4.41016,2.73437 -2.33399,10.26954 -4.30273,-1.94727 -20.41602,-9.23242 10.86524,-30.53907 14.07031,9.4629 v 0.002 l 20.08984,13.51172 -6.9082,40.22461 -20.83008,-7.89844 -0.2168,-0.082 -1.52929,-0.58008 -14.63672,-5.55078 -20.16016,-7.64649 -1.11523,-0.42187 -0.0234,-0.01 -5.58008,-2.11523 33.3418,-66.54883 8.55664,3.57227 14.71094,6.14062 1.29687,0.54102 16.3125,6.80859 18.64258,7.7832 -2.3418,80.83399 33.6836,0.35742 -0.11914,-5.24414 5.14453,-0.0781 68.44531,-1.04492 0.59766,6.46289 13.2539,-0.65234 -4.78125,-34.07617 49.98438,-9.20703 -5.94141,-13.30078 6.2168,-0.56641 -11.82031,-28.98633 c -1.90319,0.96573 -4.00964,1.96344 -6.26758,2.98242 l -17.83203,-39.91601 z" /><g
       id="g12474"
       transform="matrix(0.31214159,0,0,0.31214159,-203.87106,586.46637)"><path
         style="fill:#1a5fb4;fill-opacity:1;stroke-width:7.55906"
         d="m 2266.7774,-1166.7812 -229.8594,-16.8204 -145.3282,296.61332 299.9962,87.91797 41.1718,-208.66019 -163.293,-105.1211 -89.4765,175.56644 167.5313,65.70313 17.9492,-87.37109 -86.4336,-57.00388 7.0117,43.57029 39.832,24.69531 -7.4766,32.89844 -79.1913,-35.8125 34.8086,-97.83984 109.4414,73.60937 -22.1329,128.86718 -205.3281,-77.86718 106.8164,-213.19527 190.6836,79.5937 -7.5078,258.96485 107.9141,1.14453 -0.3829,-16.79687 235.7579,-3.59766 1.914,20.70312 42.461,-2.08984 -50.6836,-361.22263 z"
         id="path11757"
         sodipodi:nodetypes="cccccccccccccccccccccccccccc" /><path
         style="fill:#26a269;fill-opacity:1;stroke-width:7.55906"
         d="m 2324.0262,-1215.8532 340.2531,22.468 114.1961,255.609 -404.8204,74.56681 z"
         id="path11759"
         sodipodi:nodetypes="ccccc" /><circle
         style="fill:#ffffff;fill-opacity:1;stroke-width:7.55906"
         id="circle11761"
         cx="2444.0095"
         cy="-1116.501"
         r="55.708984" /><circle
         style="fill:#26a269;fill-opacity:1;stroke-width:7.55906"
         id="circle11763"
         cx="2468.6978"
         cy="-1132.5369"
         r="13.22191" /><path
         id="path11765"
         style="fill:#a51d2d;fill-opacity:1;stroke-width:7.55906"
         d="m 2171.8711,-1173.7265 11.8535,87.164 69.7754,29.125 -7.5078,258.96485 107.9141,1.14454 -0.3828,-16.79688 16.4843,-0.25195 -170.5429,-357.33006 z m 18.8985,138.9648 19.3086,141.9746 22.6796,-114.9434 z" /><path
         id="path11767"
         style="fill:#f66151;fill-opacity:1;stroke-width:7.55906"
         d="m 2151.7618,-1175.1973 -14.4063,69.2793 56.4141,23.5489 -9.541,-90.4532 z m -21.1504,101.709 -11.5118,55.3633 64.3614,43.28907 -22.1328,128.86719 -72.3243,-27.42773 -8.6757,41.7207 111.2578,32.60547 20.8984,-105.91016 -13.1074,-124.23824 z m -16.7403,80.50589 -6.9707,33.52344 18.9785,11.76757 -7.4765,32.89844 -19.0039,-8.59375 -6.3321,30.44922 54.4532,21.35547 17.9492,-87.37109 z" /><path
         id="path11769"
         style="fill:#e5a50a;fill-opacity:1;stroke-width:7.55906"
         d="m 2119.2383,-1177.5781 -29.0078,51.9902 51.2832,21.4063 14.2481,-70.7227 z m -39.7246,71.1953 -95.2773,170.76367 114.291,44.82226 6.0898,-30.23046 -65.4062,-29.57813 34.8086,-97.83984 49.5527,33.3281 11.2168,-55.6816 z m -0.4785,90.4258 7.0117,43.57029 25.707,15.9375 6.7442,-33.48242 z m -105.1563,98.90037 -25.9824,46.57031 138.3692,40.55078 8.3281,-41.33984 z" /><path
         id="path11771"
         style="fill:#26a269;fill-opacity:1;stroke-width:7.55906"
         d="m 2075.2637,-1180.7949 -73.1953,68.3203 -110.4785,225.48633 60.0625,17.60156 25.873,-46.28711 -21.5254,-8.16211 106.8164,-213.19527 31.168,13.0097 29.7539,-53.2265 z m -5.7988,67.9434 -89.4766,175.56635 7.8887,3.09375 95.0293,-170.0078 z" /><path
         style="fill:#ffffff;fill-opacity:1;stroke-width:7.55906"
         d="m 2741.4903,-1075.0632 c -102.0288,51.7721 -376.5373,130.59681 -376.5373,130.59681 l 414.4025,-37.73127 z"
         id="path11773"
         sodipodi:nodetypes="cccc" /></g><path
       style="fill:#241f31;fill-opacity:1;stroke:#ffffff;stroke-width:7.559;stroke-linecap:butt;stroke-linejoin:bevel;stroke-dasharray:30.236, 15.118, 7.559, 15.118;stroke-dashoffset:0;stroke-opacity:0.665537"
       d="M 44.624399,86.258459 2101.4995,140.78564 M 53.108109,39.521158 2093.0158,308.75163 M 72.766646,-5.74127 2073.3573,475.24274 M 103.38463,-48.368817 2042.7393,639.09897 M 144.6266,-87.230344 2001.4973,799.18919 M 196.0407,-121.23597 1950.0832,954.4235 M 257.06363,-149.34903 1889.0603,1103.7652 M 327.02681,-170.59739 1819.0971,1246.2423 M 405.1637,-184.08415 1740.9602,1380.9577 M 490.61823,-188.99746 1655.5057,1507.0997 M 582.45414,-184.61936 1563.6698,1623.9503 M 679.66524,-170.33373 1466.4587,1730.8934 M 781.18648,-145.63298 1364.9374,1827.4213 M 885.90558,-110.12363 1260.2183,1913.1407 M 992.67519,-63.53063 1153.4487,1987.7763 M 1100.3255,-5.7003545 1045.7984,2051.1747 M 1207.6772,63.397698 938.44672,2103.3054 M 1313.554,143.67058 832.56994,2144.2612 M 1416.7958,234.9029 729.32805,2174.2575 M 1516.2717,336.75922 629.85218,2193.6299 M 1610.8917,448.78766 535.23221,2202.8302 M 1699.6191,570.42494 446.50482,2202.4216 M 1781.4818,701.00246 364.64211,2193.0727 M 1855.5829,839.7537 290.541,2175.5502 M 1921.1105,985.82257 225.01336,2150.71"
       id="path12821"
       sodipodi:nodetypes="cc"
       inkscape:path-effect="#path-effect19065"
       inkscape:original-d="M 44.624399,86.258459 2101.4995,140.78564"
       class="UnoptimicedTransforms"
       transform="translate(-2232.5537,-301.22875)" /><rect
       style="opacity:1;fill:#113a6f;fill-opacity:1;stroke-width:20;stroke-linecap:round"
       id="rect1941"
       width="1920"
       height="1080"
       x="3317.0933"
       y="0"
       rx="1.8656181"
       ry="1.68121"
       inkscape:export-filename="cubic-geeko-d.png"
       inkscape:export-xdpi="96"
       inkscape:export-ydpi="96" /><path
       style="opacity:0.311107;fill:#ffffff;fill-opacity:0.315194;stroke:none;stroke-width:7.559;stroke-linejoin:bevel;stroke-dasharray:none;stroke-dashoffset:0;stroke-opacity:1"
       id="path1943"
       width="221.28516"
       height="221.28516"
       x="1255.5789"
       y="-1320.4636"
       transform="rotate(45,811.13652,1969.8463)"
       inkscape:path-effect="#path-effect1979"
       class="UnoptimicedTransforms"
       d="m 1210.5027,-1194.4841 140.3818,-171.0557 171.0557,140.3818 -140.3818,171.0557 z m 204.2225,-158.4523 94.6116,-200.0395 200.0395,94.6116 -94.6116,200.0394 z m 439.4215,-371.8976 27.0877,219.621 -219.621,27.0877 -27.0877,-219.621 z m -13.7619,35.419 5.4306,-221.2185 221.2185,5.4306 -5.4306,221.2185 z m 462.6195,-334.2495 -122.9394,183.9919 -183.9919,-122.9395 122.9395,-183.9919 z m -113.9201,-172.9808 163.9615,-148.6061 148.6061,163.9615 -163.9615,148.6061 z m 422.4648,-327.9164 69.4131,210.1165 -210.1165,69.4131 -69.4131,-210.1165 z m -1058.3257,1383.3555 186.9536,118.3871 -118.387,186.9535 -186.9536,-118.38703 z m 338.0066,-156.4836 5.4306,221.2185 -221.2185,5.4307 -5.4307,-221.2186 z m 229.3845,-149.4052 -74.5487,208.3497 -208.3497,-74.5487 74.5487,-208.3497 z m 184.482,-41.9975 -217.0332,43.1706 -43.1706,-217.0332 217.0332,-43.1706 z m -84.0072,-328.1821 195.1561,-104.3131 104.3131,195.1561 -195.1561,104.3131 z m 199.5765,-206.7214 202.301,-89.6739 89.6739,202.301 -202.301,89.6739 z m 446.8971,-255.454 10.8579,221.0186 -221.0186,10.8579 -10.8579,-221.0186 z m -903.9924,1489.24002 -131.8194,177.73791 -177.7379,-131.81942 131.8194,-177.7379 z m -84.629,-79.65966 32.4693,-218.89006 218.89,32.4693 -32.4692,218.89003 z m 477.5572,-300.55056 -144.5374,167.5591 -167.5591,-144.5374 144.5375,-167.5591 z m -56.4856,-60.9641 -27.0876,-219.621 219.6209,-27.0877 27.0877,219.621 z m 385.3064,-193.504 -218.8901,-32.4693 32.4693,-218.8901 218.8901,32.4693 z m 110.2966,-165.2252 -163.9614,-148.6061 148.606,-163.9614 163.9615,148.606 z m 309.1063,-252.8482 -220.2196,21.6898 -21.6898,-220.2196 220.2197,-21.6898 z m -940.4347,1377.43893 -214.6535,53.76791 -53.7679,-214.65352 214.6535,-53.76791 z m 212.4228,-234.53898 -192.5373,109.07106 -109.0711,-192.53734 192.5374,-109.07105 z m 200.3206,-256.71632 -136.1416,174.44936 -174.4494,-136.14162 136.1417,-174.44937 z m 187.8593,-229.38933 -94.6116,200.03939 -200.0394,-94.61159 94.6116,-200.0394 z m 97.5863,-291.6902 99.4923,197.6573 -197.6572,99.4923 -99.4923,-197.6573 z m 69.622,88.8899 -59.0196,-213.2693 213.2693,-59.0196 59.0196,213.2693 z m 249.9949,-177.1951 -131.8194,-177.7379 177.7379,-131.8194 131.8194,177.7379 z"
       sodipodi:type="rect" /><path
       id="path1945"
       style="fill:#000000;fill-opacity:0.315194;stroke:none;stroke-width:7.559;stroke-linejoin:bevel;stroke-dasharray:none;stroke-dashoffset:0;stroke-opacity:1;filter:url(#filter1381)"
       d="m 3398.4701,-33.304687 -110.6953,127.5 50.7051,159.869137 -85.1895,63.8789 104.9063,79.32813 -59.4512,208.26562 98.9648,56.38672 40.9043,-9.39062 55.0215,88.29687 125.5821,-97.72655 54.7949,-15.08008 6.7304,27.14453 -112.1406,462.50393 244.8086,24.8945 -9.5293,-433.33397 -48.5918,-190.13086 122.6211,35.34765 41.7031,-71.06445 130.2696,40.00195 84.7754,-130.11523 -102.3536,-85.42969 59.3028,-119 -163.3731,-56.84375 -2.6621,-79.125003 -211.0058,13.77539 -77.1504,-71.609374 -111.084,65.0625 z" /><path
       style="opacity:0.714391;fill:#ffffff;fill-opacity:0.315194;stroke:none;stroke-width:7.559;stroke-linejoin:bevel;stroke-dasharray:none;stroke-dashoffset:0;stroke-opacity:1"
       id="path1947"
       width="221.28516"
       height="221.28516"
       x="1255.5789"
       y="-1320.4636"
       transform="rotate(45,1045.6612,2036.0833)"
       inkscape:path-effect="#path-effect1983"
       class="UnoptimicedTransforms"
       d="m 1327.0978,-1100.4779 -70.2195,-148.4667 148.4667,-70.2196 70.2196,148.4668 z m 205.8962,-292.2925 16.1768,-41.9367 41.9367,16.1768 -16.1768,41.9367 z m 188.4757,-159.6156 -12.6833,-85.504 85.504,-12.6833 12.6833,85.5039 z m 208.3815,-187.3243 -33.7405,-81.4569 81.4568,-33.7405 33.7406,81.4569 z m 368.3573,-283.0003 -119.0975,178.2422 -178.2422,-119.0976 119.0976,-178.2422 z m 56.9006,-182.5091 6.511,25.9932 -25.9932,6.511 -6.511,-25.9932 z m 124.0977,-146.4426 28.8559,-95.1251 95.1251,28.8559 -28.8559,95.1251 z m -798.437,1370.00592 -100.1427,86.38371 -86.3837,-100.14273 100.1427,-86.3837 z m 99.0575,-211.17922 11.979,4.9618 -4.9618,11.979 -11.979,-4.9618 z m 193.2488,-211.6679 30.3981,18.2199 -18.2199,30.3981 -30.3981,-18.2199 z m 207.681,-182.3013 5.0184,16.5435 -16.5435,5.0184 -5.0184,-16.5435 z m 202.0075,-165.1264 -31.8627,-7.9812 7.9812,-31.8626 31.8626,7.9811 z m 140.0399,-181.5315 9.6289,-78.0684 78.0684,9.6289 -9.6289,78.0684 z m 317.8905,-231.9691 -76.2925,80.1326 -80.1326,-76.2926 76.2926,-80.1325 z m -1150.3861,1469.19698 47.4669,-189.49881 189.4988,47.46698 -47.4669,189.49881 z m 358.9312,-266.84522 -44.619,44.61903 -44.6191,-44.61903 44.6191,-44.61906 z m 129.6091,-211.84986 37.6217,-5.5807 5.5807,37.6218 -37.6218,5.5806 z m 245.8189,-86.2246 -121.9725,-65.1957 65.1957,-121.9726 121.9725,65.1957 z m 155.1704,-189.9273 -87.2157,-111.7566 111.7566,-87.2158 87.2158,111.7567 z m 225.1091,-309.2746 -3.0502,30.9684 -30.9683,-3.0502 3.0501,-30.9683 z m 157.2105,-141.4416 -18.8191,-62.0381 62.0381,-18.8191 18.8191,62.0381 z m -894.6798,1271.45619 46.9748,121.77764 -121.7776,46.97482 -46.9748,-121.77764 z m 157.7262,-109.759 -0.9924,-2.39579 2.3958,-0.99237 0.9924,2.39579 z m 232.4648,-207.46762 -25.9895,45.87804 -45.8781,-25.98959 25.9896,-45.87803 z m 182.136,-118.56217 -89.5634,-45.0824 45.0824,-89.5635 89.5635,45.0825 z m 114.9294,-264.5922 60.0995,-57.2194 57.2194,60.0994 -60.0995,57.2194 z m 221.0504,-269.825 108.8741,41.9973 -41.9974,108.8741 -108.874,-41.9974 z m 332.4344,-51.4598 -172.1005,34.2329 -34.233,-172.1006 172.1006,-34.2329 z"
       sodipodi:type="rect" /><path
       style="opacity:0.167731;fill:#ffffff;fill-opacity:0.315194;stroke:none;stroke-width:7.559;stroke-linejoin:bevel;stroke-dasharray:none;stroke-dashoffset:0;stroke-opacity:1"
       id="path1949"
       width="221.28516"
       height="221.28516"
       x="1255.5789"
       y="-1320.4636"
       transform="rotate(45,844.78695,1922.5191)"
       inkscape:path-effect="#path-effect1987"
       class="UnoptimicedTransforms"
       d="m 1491.5215,-1209.821 -125.3001,125.3 -125.3,-125.3 125.3,-125.3001 z m -77.8902,-210.4474 163.0375,-133.8014 133.8014,163.0375 -163.0375,133.8014 z m 444.613,-196.0989 -85.4766,115.2519 -115.2519,-85.4766 85.4766,-115.252 z m 108.8472,-179.6237 -14.7001,12.0641 -12.0641,-14.7001 14.7001,-12.0641 z m 175.6774,-128.4121 -61.9655,-75.505 75.5051,-61.9654 61.9654,75.505 z m 182.8014,-213.2408 -31.526,-71.1214 71.1214,-31.526 31.526,71.1214 z m 295.3366,-287.2755 -39.5871,119.8321 -119.8321,-39.5872 39.5872,-119.832 z m 79.9293,-286.4823 166.9659,94.585 -94.585,166.966 -166.966,-94.5851 z m -1175.914,1741.85058 43.5996,-81.56918 81.5692,43.5996 -43.5996,81.56919 z m 272.2251,-121.70508 -106.9204,-79.2976 79.2976,-106.9204 106.9204,79.2976 z m 148.2161,-221.7857 -33.3508,-100.9544 100.9544,-33.3508 33.3508,100.9544 z m 152.4413,-367.0604 181.2683,26.8886 -26.8886,181.2684 -181.2684,-26.8887 z m 350.0094,-21.9709 -146.7702,7.2103 -7.2103,-146.7701 146.7701,-7.2104 z m 172.8453,-214.191 -105.4245,2.588 -2.588,-105.4245 105.4245,-2.588 z m 235.6426,-138.4846 -202.5825,-14.9434 14.9434,-202.5825 202.5825,14.9434 z m 19.46,-387.142 h 165.0995 v 165.0995 H 2875.762 Z m -1097.7998,1616.96197 88.5076,26.84851 -26.8485,88.50768 -88.5076,-26.84851 z m 199.174,-118.79422 8.1279,-46.84181 46.8418,8.12782 -8.1278,46.84181 z m 263.5085,-255.38065 v 80.3887 h -80.3887 l 0,-80.3887 z m 175.4293,-255.1479 79.7186,119.3073 -119.3073,79.7185 -79.7185,-119.3072 z m 182.2324,-90.4159 -12.0979,0.297 -0.2969,-12.0979 12.0978,-0.297 z m 221.51,-138.3989 -95.209,-31.4528 31.4528,-95.209 95.209,31.4528 z m 218.089,-151.6068 -161.6912,-53.4156 53.4156,-161.6912 161.6912,53.4156 z m 114.1859,-262.2177 -13.6594,-68.6706 68.6706,-13.6595 13.6595,68.6707 z m -1114.2042,1562.61417 -19.499,-3.87861 3.8786,-19.49908 19.499,3.87861 z m 127.3288,-143.77309 -3.0547,-124.43542 124.4354,-3.05471 3.0547,124.43541 z m 221.9303,-251.80708 26.822,-42.35666 42.3567,26.82206 -26.8221,42.35666 z m 218.3112,-121.9751 -69.5141,-93.7289 93.729,-69.5142 69.5141,93.729 z m 263.3387,-160.3132 -172.5396,-61.7356 61.7357,-172.5397 172.5396,61.7357 z m 164.3813,-340.7362 3.8153,51.7232 -51.7232,3.8153 -3.8153,-51.7232 z m 232.3706,-72.5277 -156.0276,-35.0372 35.0372,-156.0275 156.0275,35.0372 z m 106.7537,-234.5822 -28.1991,-85.3598 85.3599,-28.1991 28.199,85.3598 z"
       sodipodi:type="rect" /><path
       style="fill:#0b3620;fill-opacity:1;stroke:none;stroke-width:7.559;stroke-linejoin:bevel;stroke-dasharray:30.236, 15.118, 7.559, 15.118;stroke-opacity:0.665537"
       d="m 3730.4942,490.0558 130.3125,37.5654 41.7027,-71.06508 130.2686,40.00265 84.7752,-130.11451 -102.3531,-85.42994 59.3025,-119.00113 -163.3721,-56.84326 -2.6628,-79.125022 -211.0056,13.776183 -77.1499,-71.609743 -111.0842,65.062755 -127.8643,-93.407361 -110.6936,127.501213 50.7034,159.867545 -85.1879,63.87989 104.9058,79.32859 -59.451,208.26573 98.964,56.38663 40.905,-9.39136 55.0222,88.29631 125.5811,-97.72617 65.5084,-18.02897 z"
       id="path1951" /><path
       id="path1953"
       style="fill:#6c5507;fill-opacity:1;stroke:none;stroke-width:7.559;stroke-linejoin:bevel;stroke-dasharray:30.236, 15.118, 7.559, 15.118;stroke-opacity:0.665537"
       d="m 3538.4857,123.56836 78.545,316.79297 -117.9415,142.39258 -122.4511,-21.58985 129.0312,55.875 134.9336,-81.60351 23.0352,92.90429 -112.1406,462.50396 244.8085,24.8945 -9.5293,-433.334 -68.623,-268.50782 168.5332,-60.39843 173.8418,57.91601 -171.0859,-103.01758 -193.0528,50.08594 -25.1933,-79.8164 171.6914,-119.99805 -182.4024,79.48828 -6.1562,-105.78125 -37.9844,80.85938 z" /><path
       id="path1955"
       style="opacity:0.722215;mix-blend-mode:normal;fill:#000000;fill-opacity:1;stroke-width:2.3595;filter:url(#filter1415)"
       d="m 3842.6478,212.94727 2.2129,15.72851 -20.084,-0.41016 -21.0097,-1.5371 -4.7559,-0.34766 v -0.002 l -3.8574,-0.28125 -5.0293,-0.36719 -1.1855,-0.0879 -0.062,-0.004 -8.7481,-0.64062 -15.1309,-1.10743 -11.9687,-0.875 -10.877,22.20118 -34.4863,70.38281 17.5762,5.15039 v 0.002 l 40.6621,11.91602 2.5293,0.74023 32.875,9.63477 5.7715,-29.25195 0.4394,-2.22266 0.3125,-1.58398 v -0.002 l 6.3282,-32.07031 -10.42,-6.70703 -20.1601,-12.97852 v -0.002 l -16.1953,-10.42383 -4.1953,-2.70117 -27.9297,54.80078 1.3261,0.51953 0.4805,0.18946 0.6563,0.25781 32.748,12.84375 1.7891,0.70117 15.2929,5.99805 5.6036,-27.27344 -14.6622,-9.66797 v -0.002 l -12.3183,-8.12305 2.1894,13.59961 8.0235,4.97461 4.4101,2.73437 -2.334,10.26954 -4.3027,-1.94727 -20.416,-9.23242 10.8652,-30.53907 14.0703,9.4629 v 0.002 l 20.0899,13.51172 -6.9082,40.22461 -20.8301,-7.89844 -0.2168,-0.082 -1.5293,-0.58008 -14.6367,-5.55078 -20.1602,-7.64649 -1.1152,-0.42187 -0.023,-0.01 -5.5801,-2.11523 33.3418,-66.54883 8.5567,3.57227 14.7109,6.14062 1.2969,0.54102 16.3125,6.80859 18.6426,7.7832 -2.3418,80.83399 33.6836,0.35742 -0.1192,-5.24414 5.1445,-0.0781 68.4454,-1.04492 0.5976,6.46289 13.2539,-0.65234 -4.7812,-34.07617 49.9843,-9.20703 -5.9414,-13.30078 6.2168,-0.56641 -11.8203,-28.98633 c -1.9032,0.96573 -4.0096,1.96344 -6.2676,2.98242 l -17.832,-39.91601 z" /><g
       id="g1975"
       transform="matrix(0.31214159,0,0,0.31214159,3113.2221,586.46637)"><path
         style="fill:#1a5fb4;fill-opacity:1;stroke-width:7.55906"
         d="m 2266.7774,-1166.7812 -229.8594,-16.8204 -145.3282,296.61332 299.9962,87.91797 41.1718,-208.66019 -163.293,-105.1211 -89.4765,175.56644 167.5313,65.70313 17.9492,-87.37109 -86.4336,-57.00388 7.0117,43.57029 39.832,24.69531 -7.4766,32.89844 -79.1913,-35.8125 34.8086,-97.83984 109.4414,73.60937 -22.1329,128.86718 -205.3281,-77.86718 106.8164,-213.19527 190.6836,79.5937 -7.5078,258.96485 107.9141,1.14453 -0.3829,-16.79687 235.7579,-3.59766 1.914,20.70312 42.461,-2.08984 -50.6836,-361.22263 z"
         id="path1957"
         sodipodi:nodetypes="cccccccccccccccccccccccccccc" /><path
         style="fill:#26a269;fill-opacity:1;stroke-width:7.55906"
         d="m 2324.0262,-1215.8532 340.2531,22.468 114.1961,255.609 -404.8204,74.56681 z"
         id="path1959"
         sodipodi:nodetypes="ccccc" /><circle
         style="fill:#ffffff;fill-opacity:1;stroke-width:7.55906"
         id="circle1961"
         cx="2444.0095"
         cy="-1116.501"
         r="55.708984" /><circle
         style="fill:#26a269;fill-opacity:1;stroke-width:7.55906"
         id="circle1963"
         cx="2468.6978"
         cy="-1132.5369"
         r="13.22191" /><path
         id="path1965"
         style="fill:#a51d2d;fill-opacity:1;stroke-width:7.55906"
         d="m 2171.8711,-1173.7265 11.8535,87.164 69.7754,29.125 -7.5078,258.96485 107.9141,1.14454 -0.3828,-16.79688 16.4843,-0.25195 -170.5429,-357.33006 z m 18.8985,138.9648 19.3086,141.9746 22.6796,-114.9434 z" /><path
         id="path1967"
         style="fill:#f66151;fill-opacity:1;stroke-width:7.55906"
         d="m 2151.7618,-1175.1973 -14.4063,69.2793 56.4141,23.5489 -9.541,-90.4532 z m -21.1504,101.709 -11.5118,55.3633 64.3614,43.28907 -22.1328,128.86719 -72.3243,-27.42773 -8.6757,41.7207 111.2578,32.60547 20.8984,-105.91016 -13.1074,-124.23824 z m -16.7403,80.50589 -6.9707,33.52344 18.9785,11.76757 -7.4765,32.89844 -19.0039,-8.59375 -6.3321,30.44922 54.4532,21.35547 17.9492,-87.37109 z" /><path
         id="path1969"
         style="fill:#e5a50a;fill-opacity:1;stroke-width:7.55906"
         d="m 2119.2383,-1177.5781 -29.0078,51.9902 51.2832,21.4063 14.2481,-70.7227 z m -39.7246,71.1953 -95.2773,170.76367 114.291,44.82226 6.0898,-30.23046 -65.4062,-29.57813 34.8086,-97.83984 49.5527,33.3281 11.2168,-55.6816 z m -0.4785,90.4258 7.0117,43.57029 25.707,15.9375 6.7442,-33.48242 z m -105.1563,98.90037 -25.9824,46.57031 138.3692,40.55078 8.3281,-41.33984 z" /><path
         id="path1971"
         style="fill:#26a269;fill-opacity:1;stroke-width:7.55906"
         d="m 2075.2637,-1180.7949 -73.1953,68.3203 -110.4785,225.48633 60.0625,17.60156 25.873,-46.28711 -21.5254,-8.16211 106.8164,-213.19527 31.168,13.0097 29.7539,-53.2265 z m -5.7988,67.9434 -89.4766,175.56635 7.8887,3.09375 95.0293,-170.0078 z" /><path
         style="fill:#ffffff;fill-opacity:1;stroke-width:7.55906"
         d="m 2741.4903,-1075.0632 c -102.0288,51.7721 -376.5373,130.59681 -376.5373,130.59681 l 414.4025,-37.73127 z"
         id="path1973"
         sodipodi:nodetypes="cccc" /></g></g></svg>
