<?xml version="1.0" encoding="UTF-8" standalone="no"?>
<!-- Created with Inkscape (http://www.inkscape.org/) -->

<svg
   width="1920"
   height="1080"
   viewBox="0 0 1920 1080"
   version="1.1"
   id="svg5"
   inkscape:version="1.2.2 (b0a8486541, 2022-12-01)"
   sodipodi:docname="opensuse.svg"
   xml:space="preserve"
   inkscape:export-filename="opensuse-l.png"
   inkscape:export-xdpi="96"
   inkscape:export-ydpi="96"
   xmlns:inkscape="http://www.inkscape.org/namespaces/inkscape"
   xmlns:sodipodi="http://sodipodi.sourceforge.net/DTD/sodipodi-0.dtd"
   xmlns="http://www.w3.org/2000/svg"
   xmlns:svg="http://www.w3.org/2000/svg"><sodipodi:namedview
     id="namedview7"
     pagecolor="#ffffff"
     bordercolor="#666666"
     borderopacity="1.0"
     inkscape:showpageshadow="2"
     inkscape:pageopacity="0.0"
     inkscape:pagecheckerboard="0"
     inkscape:deskcolor="#d1d1d1"
     inkscape:document-units="px"
     showgrid="false"
     inkscape:zoom="0.66927083"
     inkscape:cx="960"
     inkscape:cy="2211.3619"
     inkscape:window-width="1920"
     inkscape:window-height="1011"
     inkscape:window-x="0"
     inkscape:window-y="0"
     inkscape:window-maximized="1"
     inkscape:current-layer="layer1" /><defs
     id="defs2"><clipPath
       id="vlpa"><path
         d="m0 200.3h320v-200.3h-320v200.3z"
         id="path3040" /></clipPath></defs><g
     inkscape:label="Capa 1"
     inkscape:groupmode="layer"
     id="layer1"><rect
       style="opacity:1;fill:#8ff0a4;fill-opacity:1;stroke-width:20;stroke-linecap:round"
       id="rect234"
       width="1920"
       height="1080"
       x="0"
       y="0"
       rx="1.8656181"
       ry="1.68121"
       inkscape:export-filename="opensuse-l.png"
       inkscape:export-xdpi="96"
       inkscape:export-ydpi="96" /><g
       clip-path="url(#vlpa)"
       id="g3085"
       transform="matrix(0.38342849,0,0,-0.38342849,1772.6942,1056.5251)"
       style="fill:#ffffff;stroke-width:3.26006;fill-opacity:0.59478372"><g
         transform="translate(262.7,162.7)"
         id="g3047"
         style="fill:#ffffff;stroke-width:3.26006;fill-opacity:0.59478372"><path
           d="m 0,0 c 0.175,4.73 2.156,9.12 5.614,12.34 3.46,3.231 7.975,4.9 12.71,4.75 9.761,-0.349 17.43,-8.589 17.1,-18.34 C 35.24,-5.98 33.26,-10.37 29.81,-13.58 26.35,-16.83 21.846,-18.5 17.09,-18.34 7.341,-17.981 -0.32,-9.76 0.01,0 Z m 47.35,-17.44 c 0.805,0.532 1.396,0.972 1.645,1.07 l 0.269,0.419 c -0.681,4.28 -7.06,25.03 -11.88,30.02 -1.329,1.36 -2.394,2.7 -4.549,3.961 -17.46,10.17 -58.86,16.31 -60.8,16.59 l -0.33,-0.091 -0.124,-0.3 c 0,0 -0.16,-8.58 -0.184,-9.539 -4.229,1.421 -34.97,11.35 -63.79,12.35 -24.44,0.859 -60.03,4.02 -107.2,-24.98 l -1.395,-0.868 c -22.19,-13.84 -37.51,-30.91 -45.52,-50.74 -2.512,-6.24 -5.89,-20.32 -2.542,-33.57 1.442,-5.791 4.131,-11.61 7.756,-16.82 8.194,-11.77 21.94,-19.58 36.75,-20.9 20.9,-1.87 36.73,7.519 42.36,25.1 3.871,12.13 0,29.93 -14.84,39.01 -12.07,7.391 -25.05,5.711 -32.58,0.73 -6.532,-4.331 -10.23,-11.06 -10.17,-18.45 0.151,-13.11 11.44,-20.08 19.56,-20.1 2.359,0 4.728,0.41 7.399,1.28 0.951,0.29 1.845,0.649 2.831,1.259 l 0.309,0.181 0.194,0.13 -0.065,-0.039 c 1.851,1.261 2.964,3.312 2.964,5.511 0,0.6 -0.084,1.208 -0.256,1.82 -0.959,3.32 -4.239,5.329 -7.638,4.71 l -0.459,-0.109 -0.621,-0.19 -0.901,-0.31 c -1.87,-0.46 -3.27,-0.5 -3.569,-0.51 -0.951,0.061 -5.625,1.461 -5.625,6.58 v 0.07 c 0,1.88 0.754,3.199 1.17,3.92 1.454,2.28 5.435,4.518 10.81,4.05 7.059,-0.611 12.15,-4.231 15.52,-11.06 3.129,-6.349 2.31,-14.16 -2.11,-19.88 -4.39,-5.669 -12.2,-8.078 -22.6,-6.959 -10.48,1.159 -19.34,7.19 -24.3,16.58 -4.856,9.178 -5.121,20.06 -0.685,28.42 10.61,20.03 30.65,19.82 41.64,17.92 16.26,-2.821 34.76,-17.82 41.32,-35.14 1.06,-2.761 1.6,-4.949 2.072,-6.951 l 0.708,-2.99 18.37,-8.969 0.24,-0.181 0.446,0.041 0.081,0.529 c -0.114,0.411 -0.381,0.789 -0.805,5.93 -0.349,4.562 -1.06,17.05 5.228,23.24 2.441,2.419 6.161,4.578 9.099,5.269 12.04,2.941 26.16,0.912 39.51,-14.54 6.911,-7.981 10.28,-11.62 11.97,-13.25 l 0.59,-0.532 0.694,-0.519 c 0.554,-0.301 22.96,-10.62 22.96,-10.62 l 0.461,0.11 0.009,0.479 c -0.149,0.17 -14.2,18.33 -11.7,33.28 1.969,11.91 11.45,10.83 24.56,9.35 4.28,-0.5 9.152,-1.06 14.2,-1.172 14.08,-0.089 29.25,2.511 38.6,6.601 6.049,2.63 9.909,4.38 12.33,6.579 0.87,0.721 1.32,1.891 1.791,3.15 l 0.329,0.831 c 0.391,1.021 0.967,3.171 1.219,4.35 0.102,0.519 0.162,1.068 -0.209,1.359 l -1.294,-0.24 c -4.106,-2.471 -14.37,-7.15 -23.96,-7.35 -11.91,-0.241 -35.9,11.98 -38.4,13.28 l -0.241,0.279 c -0.589,1.44 -4.19,9.949 -4.96,11.75 17.27,-11.38 31.59,-17.67 42.56,-18.64 12.21,-1.087 21.72,5.574 25.79,8.422 H 47.361 Z M 20.2,-1.64 c -3.031,0 -5.479,1.64 -5.479,3.65 0,2.029 2.448,3.66 5.479,3.66 3.031,0 5.486,-1.631 5.486,-3.66 C 25.684,0 23.229,-1.64 20.2,-1.64 M 18.179,11.87 C 14.868,11.989 11.729,10.819 9.329,8.569 6.93,6.319 5.515,3.271 5.415,-0.03 c -0.23,-6.821 5.111,-12.56 11.92,-12.81 3.309,-0.1 6.464,1.07 8.878,3.32 2.409,2.261 3.795,5.311 3.9,8.599 0.23,6.819 -5.109,12.55 -11.93,12.79 z"
           style="fill:#ffffff;stroke-width:3.26006;fill-opacity:0.59478372"
           id="path3045" /></g><g
         transform="translate(134,60.29)"
         id="g3051"
         style="fill:#ffffff;stroke-width:3.26006;fill-opacity:0.59478372"><path
           d="m 0,0 c -7.784,0 -12.06,-6.58 -12.06,-11.13 v -5.84 c 0,-6.7 5.474,-10.85 10.55,-10.85 h 17.82 c 2.245,0 2.715,-1.47 2.715,-2.71 v -3.769 c 0,-0.4 -0.081,-4.02 -2.715,-4.02 h -24.3 c -2.415,0 -4.161,-1.68 -4.161,-3.98 v -1.041 c 0,-2.291 1.746,-3.961 4.161,-3.961 h 25.62 c 6.698,0 11.02,4.66 11.02,11.88 v 6.302 c 0,6.779 -4.87,9.809 -9.706,9.809 H 1.414 c -2.64,0 -3.836,1.98 -3.836,3.38 v 3.48 c 0,2.19 1.465,3.46 4.025,3.46 h 19.41 c 2.38,0 4.171,1.71 4.171,3.971 v 1.04 c 0,2.269 -1.821,3.981 -4.251,3.981 H 0.013 Z"
           style="fill:#ffffff;stroke-width:3.26006;fill-opacity:0.59478372"
           id="path3049" /></g><g
         transform="translate(206.8,60.29)"
         id="g3055"
         style="fill:#ffffff;stroke-width:3.26006;fill-opacity:0.59478372"><path
           d="m 0,0 c -2.301,0 -4.155,-1.87 -4.155,-4.171 v -29.84 c 0,-2.391 -1.95,-4.311 -4.311,-4.311 h -13.54 c -2.369,0 -4.309,1.92 -4.309,4.311 v 29.84 c 0,2.301 -1.87,4.171 -4.169,4.171 h -1.31 c -2.335,0 -4.171,-1.842 -4.171,-4.171 v -30.97 c 0,-7.21 5.674,-12.44 13.49,-12.44 h 14.48 c 7.805,0 13.48,5.229 13.48,12.44 v 30.97 C 5.485,-1.842 3.656,0 1.325,0 H 0.006 Z"
           style="fill:#ffffff;stroke-width:3.26006;fill-opacity:0.59478372"
           id="path3053" /></g><g
         transform="translate(232.8,60.29)"
         id="g3059"
         style="fill:#ffffff;stroke-width:3.26006;fill-opacity:0.59478372"><path
           d="m 0,0 c -7.78,0 -12.07,-6.58 -12.07,-11.13 v -5.84 c 0,-6.7 5.485,-10.85 10.56,-10.85 H 16.3 c 2.248,0 2.72,-1.47 2.72,-2.71 v -3.769 c 0,-0.4 -0.081,-4.02 -2.72,-4.02 H -8.01 c -2.404,0 -4.16,-1.68 -4.16,-3.98 v -1.041 c 0,-2.291 1.756,-3.961 4.16,-3.961 h 25.63 c 6.7,0 11.04,4.66 11.04,11.88 v 6.302 c 0,6.779 -4.884,9.809 -9.72,9.809 H 1.41 c -2.646,0 -3.839,1.98 -3.839,3.38 v 3.48 c 0,2.19 1.464,3.46 4.025,3.46 h 19.42 c 2.374,0 4.158,1.71 4.158,3.971 v 1.04 c 0,2.269 -1.819,3.981 -4.26,3.981 H 0.004 Z"
           style="fill:#ffffff;stroke-width:3.26006;fill-opacity:0.59478372"
           id="path3057" /></g><g
         transform="translate(273.7,60.29)"
         id="g3063"
         style="fill:#ffffff;stroke-width:3.26006;fill-opacity:0.59478372"><path
           d="m 0,0 c -2.31,0 -4.055,-1.712 -4.055,-3.981 v -39.36 c 0,-2.259 1.705,-3.96 3.964,-3.96 h 31.36 c 2.415,0 4.16,1.67 4.16,3.96 v 1.042 c 0,2.3 -1.745,3.98 -4.16,3.98 H 5.579 v 10.02 h 18.82 c 2.41,0 4.161,1.69 4.161,3.981 v 1.04 c 0,2.301 -1.751,3.971 -4.161,3.971 H 5.579 v 10.32 h 24.38 c 2.406,0 4.16,1.659 4.16,3.971 v 1.04 c 0,2.301 -1.754,3.981 -4.16,3.981 H -0.011 V 0 Z"
           style="fill:#ffffff;stroke-width:3.26006;fill-opacity:0.59478372"
           id="path3061" /></g><g
         transform="translate(5.053,20.49)"
         id="g3067"
         style="fill:#ffffff;stroke-width:3.26006;fill-opacity:0.59478372"><path
           d="m 0,0 v 13.55 c 0,1.589 1.305,2.889 2.901,2.889 h 7.478 c 1.561,0 2.891,-1.329 2.891,-2.889 V 0 c 0,-1.6 -1.295,-2.899 -2.891,-2.899 H 2.845 C 1.245,-2.899 0,-1.628 0,0 m 2.077,21.08 c -3.931,0 -7.13,-3.059 -7.13,-6.83 V -0.59 c 0,-3.831 3.096,-6.951 6.891,-6.951 h 9.599 c 3.795,0 6.891,3.12 6.891,6.951 v 14.84 c 0,3.769 -3.201,6.83 -7.13,6.83 H 2.076 Z"
           style="fill:#ffffff;stroke-width:3.26006;fill-opacity:0.59478372"
           id="path3065" /></g><g
         transform="translate(35.51,20.78)"
         id="g3071"
         style="fill:#ffffff;stroke-width:3.26006;fill-opacity:0.59478372"><path
           d="m 0,0 v 12.96 c 0,1.791 1.4,3.189 3.188,3.189 h 7.011 c 1.79,0 3.188,-1.4 3.188,-3.189 V 0 c 0,-1.759 -1.435,-3.188 -3.188,-3.188 H 3.188 C 1.433,-3.188 0,-1.759 0,0 Z m 9.602,20.96 c -2.767,0 -4.854,-0.989 -6.529,-1.799 -1.021,-0.49 -1.905,-0.912 -2.591,-0.912 -0.31,0 -0.575,0.14 -0.715,0.37 l -0.639,1.22 c -0.159,0.321 -0.799,0.949 -1.59,0.949 h -0.949 c -0.912,0 -1.642,-0.819 -1.642,-1.818 v -37.64 c 0,-1.18 0.931,-2.11 2.11,-2.11 h 0.821 c 1.17,0 2.12,0.94 2.12,2.11 v 12.49 c 0,0.37 0.241,0.77 0.484,0.77 0.686,0 1.57,-0.402 2.591,-0.87 1.675,-0.77 3.762,-1.719 6.529,-1.719 h 0.886 c 4.9,0 7.949,2.801 7.949,7.3 v 14.37 c 0,4.43 -3.114,7.29 -7.949,7.29 H 9.602 v 0.002 z"
           style="fill:#ffffff;stroke-width:3.26006;fill-opacity:0.59478372"
           id="path3069" /></g><g
         transform="translate(66.07,34.09)"
         id="g3075"
         style="fill:#ffffff;stroke-width:3.26006;fill-opacity:0.59478372"><path
           d="m 0,0 c 0,1.591 1.251,2.839 2.843,2.839 h 7.71 c 1.589,0 2.829,-1.248 2.829,-2.839 V -4.599 H 0.002 C 0.004,-3.999 0.004,0 0.004,0 Z m 2.075,7.48 c -3.931,0 -7.121,-3.058 -7.121,-6.829 v -14.73 c 0,-3.82 3.101,-7.059 6.76,-7.059 h 9.903 c 1.225,0 2.11,0.848 2.11,2.001 v 0.649 c 0,1.159 -0.885,1.99 -2.11,1.99 H 3.481 c -2.28,0 -3.483,1.121 -3.483,3.252 v 4.309 h 14.68 c 2.361,0 3.757,1.44 3.757,3.88 v 5.71 c 0,3.769 -3.196,6.83 -7.11,6.83 H 2.077 V 7.479 Z"
           style="fill:#ffffff;stroke-width:3.26006;fill-opacity:0.59478372"
           id="path3073" /></g><g
         transform="translate(104.9,41.74)"
         id="g3079"
         style="fill:#ffffff;stroke-width:3.26006;fill-opacity:0.59478372"><path
           d="m 0,0 c -2.759,0 -4.841,-0.989 -6.521,-1.791 -1.045,-0.491 -1.938,-0.92 -2.667,-0.92 -0.321,0 -0.451,0.04 -0.7,0.471 l -0.581,1.06 c -0.333,0.67 -0.899,1.008 -1.664,1.008 h -0.816 c -0.985,0 -1.704,-0.768 -1.704,-1.819 v -24.69 c 0,-1.169 0.924,-2.109 2.115,-2.109 h 0.815 c 1.17,0 2.124,0.95 2.124,2.109 v 18.68 c 0,1.75 1.43,3.188 3.18,3.188 h 7.014 c 1.755,0 3.185,-1.438 3.185,-3.188 v -18.68 c 0,-1.169 0.929,-2.109 2.11,-2.109 h 0.824 c 1.17,0 2.12,0.95 2.12,2.109 v 19.39 C 8.834,-2.86 5.719,0 0.88,0 Z"
           style="fill:#ffffff;stroke-width:3.26006;fill-opacity:0.59478372"
           id="path3077" /></g><g
         transform="translate(315.4,18.75)"
         id="g3083"
         style="fill:#ffffff;stroke-width:3.26006;fill-opacity:0.59478372"><path
           d="m 0,0 h 0.503 c 0.574,0 1.06,0.207 1.06,0.747 0,0.382 -0.277,0.765 -1.06,0.765 C 0.277,1.512 0.121,1.494 0,1.475 Z M 0,-2.415 H -0.695 V 1.943 C -0.33,1.996 0.018,2.048 0.538,2.048 1.2,2.048 1.633,1.91 1.892,1.719 2.154,1.529 2.294,1.235 2.294,0.815 2.294,0.244 1.912,-0.104 1.443,-0.244 V -0.281 C 1.826,-0.349 2.085,-0.696 2.173,-1.34 2.278,-2.019 2.38,-2.278 2.45,-2.417 H 1.721 C 1.615,-2.278 1.512,-1.878 1.426,-1.305 1.321,-0.751 1.043,-0.54 0.488,-0.54 H 0.002 V -2.415 Z M 0.73,3.16 c -1.719,0 -3.126,-1.476 -3.126,-3.3 0,-1.859 1.407,-3.317 3.143,-3.317 1.736,-0.019 3.126,1.458 3.126,3.299 0,1.842 -1.39,3.318 -3.126,3.318 z m 0.017,0.607 c 2.136,0 3.838,-1.736 3.838,-3.909 0,-2.205 -1.703,-3.923 -3.855,-3.923 -2.137,0 -3.873,1.718 -3.873,3.923 0,2.171 1.736,3.909 3.873,3.909 z"
           style="fill:#ffffff;stroke-width:3.26006;fill-opacity:0.59478372"
           id="path3081" /></g></g><g
       id="g4527"
       transform="translate(14.900782,245.70233)"><path
         id="path4091"
         style="opacity:1;fill:#dc8add;stroke-width:20;stroke-linecap:round"
         inkscape:transform-center-x="23.023719"
         inkscape:transform-center-y="-1.5879252"
         d="M 23.43739,1551.9158 C 104.84661,1305.683 224.47477,1035.2185 127.92764,775.95171 78.38487,628.98588 -99.955046,602.02195 -165.65301,471.0412 -246.3756,350.09307 -118.92705,183.67574 17.112405,248.61021 205.45983,326.53898 415.87397,216.17496 516.97549,51.830138 589.05995,-47.622105 623.10792,-170.46224 683.88988,-273.59737 c 124.39554,-111.58866 243.74042,39.32996 237.77722,167.07646 12.7174,189.916781 155.803,318.46157 329.7892,369.62483 136.5349,47.55589 321.0242,12.11785 418.5204,136.2407 68.2394,158.98828 -129.2421,189.16082 -215.1934,262.49931 -183.003,163.9342 -225.0898,454.89577 -108.4418,668.84977 58.7281,112.0914 -101.862,296.3921 -187.2242,149.699 -48.1546,-159.0413 -173.0356,-293.5849 -333.68877,-342.3908 -128.16063,-47.2816 -290.89797,2.4028 -340.30453,137.3773 -40.81865,159.1526 -169.01794,324.8181 -349.43996,313.5285 -39.60087,-3.546 -77.68933,-17.8241 -112.24665,-36.9919 z"
         sodipodi:nodetypes="cccccccccc" /><path
         id="path4056"
         style="opacity:1;fill:#f66151;stroke-width:19.9999;stroke-linecap:round"
         inkscape:transform-center-x="67.759335"
         inkscape:transform-center-y="66.189452"
         d="M 233.94889,1620.4521 C 253.99836,1381.5854 303.17033,1112.6954 160.46735,900.50328 84.236172,779.10333 -81.865984,793.34122 -169.16852,689.79311 c -98.64186,-91.29 -19.99587,-268.35346 116.279294,-239.33967 186.090866,29.4086 351.395266,-115.17377 406.808606,-284.69088 43.33269,-104.934342 47.43425,-222.683523 79.81422,-328.4897 87.72988,-127.12683 227.54941,-17.23221 249.7479,98.868094 52.39913,167.946876 208.72939,252.611296 376.1392,261.062026 132.9711,13.2878 291.1386,-58.36126 405.5408,32.1636 95.6285,128.17205 -75.3515,197.89131 -136.7801,282.34686 -129.1125,186.81622 -104.1708,457.40076 46.8224,624.53116 76.964,88.0752 -27.6112,288.3612 -135.9764,174.932 -77.5887,-132.5513 -218.8512,-226.5349 -373.76896,-235.743 -125.38588,-14.8476 -260.93023,64.9128 -276.21784,196.8813 -2.35333,151.8462 -81.83634,328.3956 -246.42855,357.1699 -36.35667,5.3562 -73.66921,0.7405 -108.86316,-9.0327 z"
         sodipodi:nodetypes="cccccccccc" /><path
         id="path4054"
         style="opacity:1;fill:#ffa348;stroke-width:19.9999;stroke-linecap:round"
         inkscape:transform-center-x="55.266115"
         inkscape:transform-center-y="125.43228"
         d="M 281.08357,1709.4574 C 249.76194,1457.5006 240.04212,1156.1104 18.772705,988.7444 -105.95631,916.62504 -320.71322,964.11358 -372.05381,793.22611 -405.38456,558.56396 -80.041538,665.02818 -1.8256686,494.77053 130.04479,341.31846 98.753217,131.98486 103.91322,-53.37677 c 67.80846,-226.85689 282.88981,-0.691363 339.66261,114.96875 169.86,148.70699 408.16986,78.28504 598.12037,15.01998 208.336,-66.8623467 245.5073,184.23157 96.6203,282.89126 -121.2286,219.50556 -27.7493,513.51166 173.455,652.75658 111.1521,133.9912 -90.7983,298.4121 -180.213,123.136 -156.50441,-123.0548 -456.42069,-152.14628 -556.84561,54.6385 -36.9042,174.5656 33.1231,426.5785 -190.13062,507.7748 -32.90509,12.1523 -68.73075,15.7661 -103.4987,11.6483 z"
         sodipodi:nodetypes="cccccccccc" /><path
         id="path4052"
         style="opacity:1;fill:#f9f06b;stroke-width:19.9999;stroke-linecap:round"
         inkscape:transform-center-x="-3.9568981"
         inkscape:transform-center-y="161.60366"
         d="M 355.27934,1630.6141 C 285.51278,1428.7267 228.65647,1191.8745 35.873269,1070.3932 -70.011596,998.94001 -200.24111,1070.4186 -308.71324,1017.5043 -422.00739,978.66715 -421.74326,806.02259 -300.22954,780.54306 -128.30321,734.65325 -48.15163,540.47507 -73.494983,375.3312 -74.718369,278.07498 -127.81537,184.34554 -120.39851,89.850374 -74.761342,-46.286496 68.879046,33.888234 131.1194,109.61855 237.2595,228.6706 404.66822,220.01843 539.38845,161.90962 645.10553,125.42034 753.09754,6.7391561 869.95936,60.959236 984.48902,147.17358 845.99185,253.28592 844.01623,353.84165 c -25.86274,192.9318 90.08004,391.72723 266.76347,470.78293 94.4694,44.0316 81.4457,244.94772 -47.7529,191.57352 C 945.11296,930.84946 782.63341,907.38693 648.72524,969.34273 545.27773,1009.7716 484.57329,1128.145 523.01739,1234.2439 c 68.98596,147.2331 21.45373,376.7623 -167.73805,396.3702 z"
         sodipodi:nodetypes="cccccccccc" /><path
         id="path4050"
         style="opacity:1;fill:#8ff0a4;stroke-width:20;stroke-linecap:round"
         inkscape:transform-center-x="-57.486761"
         inkscape:transform-center-y="63.631539"
         d="m 482.25746,1317.5591 c -84.65906,-107.3321 -168.8749,-238.5135 -310.95873,-271.357 -79.034235,-20.8981 -142.69738,49.713 -219.3932,40.5641 -76.64722,0.374 -112.82605,-104.02447 -44.748615,-145.00018 C -3.6422014,881.4842 8.3326724,757.07182 -34.200684,664.74019 -57.0065,604.1454 -101.14815,553.48752 -128.85696,496.79437 c -12.94907,-87.12948 88.099671,-95.78551 142.557282,-56.05575 85.331726,48.18775 181.104288,25.48264 253.618118,-33.95845 63.47049,-46.04905 101.23415,-140.76789 186.25233,-148.24766 89.7532,16.16656 45.66171,111.79368 52.95355,170.90226 18.94938,128.11328 134.70493,231.14152 262.69623,241.98169 66.3632,6.72776 100.78106,130.8986 11.46177,125.83429 -83.94208,-25.01564 -179.39626,-9.16792 -247.52899,47.31922 -58.02418,42.63791 -83.44132,128.65036 -38.42353,189.58853 58.14712,64.1838 93.77713,168.694 36.40349,244.7739 -13.06265,16.3885 -30.40569,28.9947 -48.87583,38.6267 z"
         sodipodi:nodetypes="cccccccccc" /><path
         id="path3896"
         style="opacity:1;fill:#99c1f1;stroke-width:20;stroke-linecap:round"
         inkscape:transform-center-x="0.15753172"
         inkscape:transform-center-y="-0.15754635"
         d="m 532.06752,1134.0649 c -91.92302,-40.8669 -190.71801,-96.4158 -294.69216,-72.7409 -61.0733,11.2585 -80.38437,78.5569 -131.87824,103.0946 C 59.837599,1192.4165 -6.7599651,1147.9144 17.344347,1094.924 47.936947,1036.416 39.662726,962.9527 -5.4113717,913.74046 -45.594781,867.83783 -100.22857,838.23841 -153.61397,810.38731 c -41.75209,-42.32519 2.72568,-100.34308 55.869732,-91.02701 70.416336,0.12038 134.325369,-32.72397 162.676896,-98.97142 32.448492,-54.26866 22.828474,-129.82009 72.070332,-173.97372 59.05296,-28.35701 79.49882,42.02756 94.91192,82.20857 54.4941,85.08332 172.52287,116.85425 264.40638,77.82574 46.99831,-18.94148 113.34272,53.00944 50.41015,79.68135 -80.20262,15.3723 -153.41389,84.35014 -156.90787,168.70153 -4.44947,51.32784 40.84538,89.12212 85.58203,103.25659 60.97689,32.42049 104.3529,114.17306 56.66192,175.97596 z"
         sodipodi:nodetypes="cccccccccc" /></g><rect
       style="opacity:1;fill:#26a269;fill-opacity:0.992389;stroke-width:20;stroke-linecap:round"
       id="rect4127"
       width="1920"
       height="1080"
       x="0"
       y="2091.8054"
       rx="1.8656181"
       ry="1.68121"
       inkscape:export-filename="opensuse-d.png"
       inkscape:export-xdpi="96"
       inkscape:export-ydpi="96" /><g
       clip-path="url(#vlpa)"
       id="g4179"
       transform="matrix(0.38342849,0,0,-0.38342849,1772.6942,3148.3305)"
       style="fill:#000000;fill-opacity:0.594784;stroke-width:3.26006"><g
         transform="translate(262.7,162.7)"
         id="g4141"
         style="fill:#000000;fill-opacity:0.594784;stroke-width:3.26006"><path
           d="m 0,0 c 0.175,4.73 2.156,9.12 5.614,12.34 3.46,3.231 7.975,4.9 12.71,4.75 9.761,-0.349 17.43,-8.589 17.1,-18.34 C 35.24,-5.98 33.26,-10.37 29.81,-13.58 26.35,-16.83 21.846,-18.5 17.09,-18.34 7.341,-17.981 -0.32,-9.76 0.01,0 Z m 47.35,-17.44 c 0.805,0.532 1.396,0.972 1.645,1.07 l 0.269,0.419 c -0.681,4.28 -7.06,25.03 -11.88,30.02 -1.329,1.36 -2.394,2.7 -4.549,3.961 -17.46,10.17 -58.86,16.31 -60.8,16.59 l -0.33,-0.091 -0.124,-0.3 c 0,0 -0.16,-8.58 -0.184,-9.539 -4.229,1.421 -34.97,11.35 -63.79,12.35 -24.44,0.859 -60.03,4.02 -107.2,-24.98 l -1.395,-0.868 c -22.19,-13.84 -37.51,-30.91 -45.52,-50.74 -2.512,-6.24 -5.89,-20.32 -2.542,-33.57 1.442,-5.791 4.131,-11.61 7.756,-16.82 8.194,-11.77 21.94,-19.58 36.75,-20.9 20.9,-1.87 36.73,7.519 42.36,25.1 3.871,12.13 0,29.93 -14.84,39.01 -12.07,7.391 -25.05,5.711 -32.58,0.73 -6.532,-4.331 -10.23,-11.06 -10.17,-18.45 0.151,-13.11 11.44,-20.08 19.56,-20.1 2.359,0 4.728,0.41 7.399,1.28 0.951,0.29 1.845,0.649 2.831,1.259 l 0.309,0.181 0.194,0.13 -0.065,-0.039 c 1.851,1.261 2.964,3.312 2.964,5.511 0,0.6 -0.084,1.208 -0.256,1.82 -0.959,3.32 -4.239,5.329 -7.638,4.71 l -0.459,-0.109 -0.621,-0.19 -0.901,-0.31 c -1.87,-0.46 -3.27,-0.5 -3.569,-0.51 -0.951,0.061 -5.625,1.461 -5.625,6.58 v 0.07 c 0,1.88 0.754,3.199 1.17,3.92 1.454,2.28 5.435,4.518 10.81,4.05 7.059,-0.611 12.15,-4.231 15.52,-11.06 3.129,-6.349 2.31,-14.16 -2.11,-19.88 -4.39,-5.669 -12.2,-8.078 -22.6,-6.959 -10.48,1.159 -19.34,7.19 -24.3,16.58 -4.856,9.178 -5.121,20.06 -0.685,28.42 10.61,20.03 30.65,19.82 41.64,17.92 16.26,-2.821 34.76,-17.82 41.32,-35.14 1.06,-2.761 1.6,-4.949 2.072,-6.951 l 0.708,-2.99 18.37,-8.969 0.24,-0.181 0.446,0.041 0.081,0.529 c -0.114,0.411 -0.381,0.789 -0.805,5.93 -0.349,4.562 -1.06,17.05 5.228,23.24 2.441,2.419 6.161,4.578 9.099,5.269 12.04,2.941 26.16,0.912 39.51,-14.54 6.911,-7.981 10.28,-11.62 11.97,-13.25 l 0.59,-0.532 0.694,-0.519 c 0.554,-0.301 22.96,-10.62 22.96,-10.62 l 0.461,0.11 0.009,0.479 c -0.149,0.17 -14.2,18.33 -11.7,33.28 1.969,11.91 11.45,10.83 24.56,9.35 4.28,-0.5 9.152,-1.06 14.2,-1.172 14.08,-0.089 29.25,2.511 38.6,6.601 6.049,2.63 9.909,4.38 12.33,6.579 0.87,0.721 1.32,1.891 1.791,3.15 l 0.329,0.831 c 0.391,1.021 0.967,3.171 1.219,4.35 0.102,0.519 0.162,1.068 -0.209,1.359 l -1.294,-0.24 c -4.106,-2.471 -14.37,-7.15 -23.96,-7.35 -11.91,-0.241 -35.9,11.98 -38.4,13.28 l -0.241,0.279 c -0.589,1.44 -4.19,9.949 -4.96,11.75 17.27,-11.38 31.59,-17.67 42.56,-18.64 12.21,-1.087 21.72,5.574 25.79,8.422 H 47.361 Z M 20.2,-1.64 c -3.031,0 -5.479,1.64 -5.479,3.65 0,2.029 2.448,3.66 5.479,3.66 3.031,0 5.486,-1.631 5.486,-3.66 C 25.684,0 23.229,-1.64 20.2,-1.64 M 18.179,11.87 C 14.868,11.989 11.729,10.819 9.329,8.569 6.93,6.319 5.515,3.271 5.415,-0.03 c -0.23,-6.821 5.111,-12.56 11.92,-12.81 3.309,-0.1 6.464,1.07 8.878,3.32 2.409,2.261 3.795,5.311 3.9,8.599 0.23,6.819 -5.109,12.55 -11.93,12.79 z"
           style="fill:#000000;fill-opacity:0.594784;stroke-width:3.26006"
           id="path4139" /></g><g
         transform="translate(134,60.29)"
         id="g4145"
         style="fill:#000000;fill-opacity:0.594784;stroke-width:3.26006"><path
           d="m 0,0 c -7.784,0 -12.06,-6.58 -12.06,-11.13 v -5.84 c 0,-6.7 5.474,-10.85 10.55,-10.85 h 17.82 c 2.245,0 2.715,-1.47 2.715,-2.71 v -3.769 c 0,-0.4 -0.081,-4.02 -2.715,-4.02 h -24.3 c -2.415,0 -4.161,-1.68 -4.161,-3.98 v -1.041 c 0,-2.291 1.746,-3.961 4.161,-3.961 h 25.62 c 6.698,0 11.02,4.66 11.02,11.88 v 6.302 c 0,6.779 -4.87,9.809 -9.706,9.809 H 1.414 c -2.64,0 -3.836,1.98 -3.836,3.38 v 3.48 c 0,2.19 1.465,3.46 4.025,3.46 h 19.41 c 2.38,0 4.171,1.71 4.171,3.971 v 1.04 c 0,2.269 -1.821,3.981 -4.251,3.981 H 0.013 Z"
           style="fill:#000000;fill-opacity:0.594784;stroke-width:3.26006"
           id="path4143" /></g><g
         transform="translate(206.8,60.29)"
         id="g4149"
         style="fill:#000000;fill-opacity:0.594784;stroke-width:3.26006"><path
           d="m 0,0 c -2.301,0 -4.155,-1.87 -4.155,-4.171 v -29.84 c 0,-2.391 -1.95,-4.311 -4.311,-4.311 h -13.54 c -2.369,0 -4.309,1.92 -4.309,4.311 v 29.84 c 0,2.301 -1.87,4.171 -4.169,4.171 h -1.31 c -2.335,0 -4.171,-1.842 -4.171,-4.171 v -30.97 c 0,-7.21 5.674,-12.44 13.49,-12.44 h 14.48 c 7.805,0 13.48,5.229 13.48,12.44 v 30.97 C 5.485,-1.842 3.656,0 1.325,0 H 0.006 Z"
           style="fill:#000000;fill-opacity:0.594784;stroke-width:3.26006"
           id="path4147" /></g><g
         transform="translate(232.8,60.29)"
         id="g4153"
         style="fill:#000000;fill-opacity:0.594784;stroke-width:3.26006"><path
           d="m 0,0 c -7.78,0 -12.07,-6.58 -12.07,-11.13 v -5.84 c 0,-6.7 5.485,-10.85 10.56,-10.85 H 16.3 c 2.248,0 2.72,-1.47 2.72,-2.71 v -3.769 c 0,-0.4 -0.081,-4.02 -2.72,-4.02 H -8.01 c -2.404,0 -4.16,-1.68 -4.16,-3.98 v -1.041 c 0,-2.291 1.756,-3.961 4.16,-3.961 h 25.63 c 6.7,0 11.04,4.66 11.04,11.88 v 6.302 c 0,6.779 -4.884,9.809 -9.72,9.809 H 1.41 c -2.646,0 -3.839,1.98 -3.839,3.38 v 3.48 c 0,2.19 1.464,3.46 4.025,3.46 h 19.42 c 2.374,0 4.158,1.71 4.158,3.971 v 1.04 c 0,2.269 -1.819,3.981 -4.26,3.981 H 0.004 Z"
           style="fill:#000000;fill-opacity:0.594784;stroke-width:3.26006"
           id="path4151" /></g><g
         transform="translate(273.7,60.29)"
         id="g4157"
         style="fill:#000000;fill-opacity:0.594784;stroke-width:3.26006"><path
           d="m 0,0 c -2.31,0 -4.055,-1.712 -4.055,-3.981 v -39.36 c 0,-2.259 1.705,-3.96 3.964,-3.96 h 31.36 c 2.415,0 4.16,1.67 4.16,3.96 v 1.042 c 0,2.3 -1.745,3.98 -4.16,3.98 H 5.579 v 10.02 h 18.82 c 2.41,0 4.161,1.69 4.161,3.981 v 1.04 c 0,2.301 -1.751,3.971 -4.161,3.971 H 5.579 v 10.32 h 24.38 c 2.406,0 4.16,1.659 4.16,3.971 v 1.04 c 0,2.301 -1.754,3.981 -4.16,3.981 H -0.011 V 0 Z"
           style="fill:#000000;fill-opacity:0.594784;stroke-width:3.26006"
           id="path4155" /></g><g
         transform="translate(5.053,20.49)"
         id="g4161"
         style="fill:#000000;fill-opacity:0.594784;stroke-width:3.26006"><path
           d="m 0,0 v 13.55 c 0,1.589 1.305,2.889 2.901,2.889 h 7.478 c 1.561,0 2.891,-1.329 2.891,-2.889 V 0 c 0,-1.6 -1.295,-2.899 -2.891,-2.899 H 2.845 C 1.245,-2.899 0,-1.628 0,0 m 2.077,21.08 c -3.931,0 -7.13,-3.059 -7.13,-6.83 V -0.59 c 0,-3.831 3.096,-6.951 6.891,-6.951 h 9.599 c 3.795,0 6.891,3.12 6.891,6.951 v 14.84 c 0,3.769 -3.201,6.83 -7.13,6.83 H 2.076 Z"
           style="fill:#000000;fill-opacity:0.594784;stroke-width:3.26006"
           id="path4159" /></g><g
         transform="translate(35.51,20.78)"
         id="g4165"
         style="fill:#000000;fill-opacity:0.594784;stroke-width:3.26006"><path
           d="m 0,0 v 12.96 c 0,1.791 1.4,3.189 3.188,3.189 h 7.011 c 1.79,0 3.188,-1.4 3.188,-3.189 V 0 c 0,-1.759 -1.435,-3.188 -3.188,-3.188 H 3.188 C 1.433,-3.188 0,-1.759 0,0 Z m 9.602,20.96 c -2.767,0 -4.854,-0.989 -6.529,-1.799 -1.021,-0.49 -1.905,-0.912 -2.591,-0.912 -0.31,0 -0.575,0.14 -0.715,0.37 l -0.639,1.22 c -0.159,0.321 -0.799,0.949 -1.59,0.949 h -0.949 c -0.912,0 -1.642,-0.819 -1.642,-1.818 v -37.64 c 0,-1.18 0.931,-2.11 2.11,-2.11 h 0.821 c 1.17,0 2.12,0.94 2.12,2.11 v 12.49 c 0,0.37 0.241,0.77 0.484,0.77 0.686,0 1.57,-0.402 2.591,-0.87 1.675,-0.77 3.762,-1.719 6.529,-1.719 h 0.886 c 4.9,0 7.949,2.801 7.949,7.3 v 14.37 c 0,4.43 -3.114,7.29 -7.949,7.29 H 9.602 v 0.002 z"
           style="fill:#000000;fill-opacity:0.594784;stroke-width:3.26006"
           id="path4163" /></g><g
         transform="translate(66.07,34.09)"
         id="g4169"
         style="fill:#000000;fill-opacity:0.594784;stroke-width:3.26006"><path
           d="m 0,0 c 0,1.591 1.251,2.839 2.843,2.839 h 7.71 c 1.589,0 2.829,-1.248 2.829,-2.839 V -4.599 H 0.002 C 0.004,-3.999 0.004,0 0.004,0 Z m 2.075,7.48 c -3.931,0 -7.121,-3.058 -7.121,-6.829 v -14.73 c 0,-3.82 3.101,-7.059 6.76,-7.059 h 9.903 c 1.225,0 2.11,0.848 2.11,2.001 v 0.649 c 0,1.159 -0.885,1.99 -2.11,1.99 H 3.481 c -2.28,0 -3.483,1.121 -3.483,3.252 v 4.309 h 14.68 c 2.361,0 3.757,1.44 3.757,3.88 v 5.71 c 0,3.769 -3.196,6.83 -7.11,6.83 H 2.077 V 7.479 Z"
           style="fill:#000000;fill-opacity:0.594784;stroke-width:3.26006"
           id="path4167" /></g><g
         transform="translate(104.9,41.74)"
         id="g4173"
         style="fill:#000000;fill-opacity:0.594784;stroke-width:3.26006"><path
           d="m 0,0 c -2.759,0 -4.841,-0.989 -6.521,-1.791 -1.045,-0.491 -1.938,-0.92 -2.667,-0.92 -0.321,0 -0.451,0.04 -0.7,0.471 l -0.581,1.06 c -0.333,0.67 -0.899,1.008 -1.664,1.008 h -0.816 c -0.985,0 -1.704,-0.768 -1.704,-1.819 v -24.69 c 0,-1.169 0.924,-2.109 2.115,-2.109 h 0.815 c 1.17,0 2.124,0.95 2.124,2.109 v 18.68 c 0,1.75 1.43,3.188 3.18,3.188 h 7.014 c 1.755,0 3.185,-1.438 3.185,-3.188 v -18.68 c 0,-1.169 0.929,-2.109 2.11,-2.109 h 0.824 c 1.17,0 2.12,0.95 2.12,2.109 v 19.39 C 8.834,-2.86 5.719,0 0.88,0 Z"
           style="fill:#000000;fill-opacity:0.594784;stroke-width:3.26006"
           id="path4171" /></g><g
         transform="translate(315.4,18.75)"
         id="g4177"
         style="fill:#000000;fill-opacity:0.594784;stroke-width:3.26006"><path
           d="m 0,0 h 0.503 c 0.574,0 1.06,0.207 1.06,0.747 0,0.382 -0.277,0.765 -1.06,0.765 C 0.277,1.512 0.121,1.494 0,1.475 Z M 0,-2.415 H -0.695 V 1.943 C -0.33,1.996 0.018,2.048 0.538,2.048 1.2,2.048 1.633,1.91 1.892,1.719 2.154,1.529 2.294,1.235 2.294,0.815 2.294,0.244 1.912,-0.104 1.443,-0.244 V -0.281 C 1.826,-0.349 2.085,-0.696 2.173,-1.34 2.278,-2.019 2.38,-2.278 2.45,-2.417 H 1.721 C 1.615,-2.278 1.512,-1.878 1.426,-1.305 1.321,-0.751 1.043,-0.54 0.488,-0.54 H 0.002 V -2.415 Z M 0.73,3.16 c -1.719,0 -3.126,-1.476 -3.126,-3.3 0,-1.859 1.407,-3.317 3.143,-3.317 1.736,-0.019 3.126,1.458 3.126,3.299 0,1.842 -1.39,3.318 -3.126,3.318 z m 0.017,0.607 c 2.136,0 3.838,-1.736 3.838,-3.909 0,-2.205 -1.703,-3.923 -3.855,-3.923 -2.137,0 -3.873,1.718 -3.873,3.923 0,2.171 1.736,3.909 3.873,3.909 z"
           style="fill:#000000;fill-opacity:0.594784;stroke-width:3.26006"
           id="path4175" /></g></g><g
       id="g4687"
       transform="translate(14,12)"><g
         id="g4685"
         transform="translate(0,242)"><path
           id="path4673"
           style="opacity:1;fill:#613583;stroke-width:20;stroke-linecap:round"
           inkscape:transform-center-x="23.023719"
           inkscape:transform-center-y="-1.5879252"
           d="m 23.43739,3643.7212 c 81.40922,-246.2328 201.03738,-516.6973 104.49025,-775.9641 -49.54277,-146.9658 -227.882686,-173.9297 -293.58065,-304.9105 -80.72259,-120.9481 46.72596,-287.3654 182.765415,-222.431 188.347425,77.9288 398.761565,-32.4352 499.863085,-196.78 72.08446,-99.4523 106.13243,-222.2924 166.91439,-325.4275 124.39554,-111.5887 243.74042,39.3299 237.77722,167.0764 12.7174,189.9168 155.803,318.4616 329.7892,369.6249 136.5349,47.5558 321.0242,12.1178 418.5204,136.2407 68.2394,158.9882 -129.2421,189.1608 -215.1934,262.4993 -183.003,163.9342 -225.0898,454.8957 -108.4418,668.8497 58.7281,112.0914 -101.862,296.3921 -187.2242,149.699 -48.1546,-159.0413 -173.0356,-293.5849 -333.68877,-342.3908 -128.16063,-47.2816 -290.89797,2.4028 -340.30453,137.3773 -40.81865,159.1526 -169.01794,324.8181 -349.43996,313.5285 -39.60087,-3.546 -77.68933,-17.8241 -112.24665,-36.9919 z"
           sodipodi:nodetypes="cccccccccc" /><path
           id="path4675"
           style="opacity:1;fill:#a51d2d;stroke-width:19.9999;stroke-linecap:round"
           inkscape:transform-center-x="67.759335"
           inkscape:transform-center-y="66.189452"
           d="m 233.94889,3712.2575 c 20.04947,-238.8667 69.22144,-507.7567 -73.48154,-719.9488 -76.231178,-121.3999 -242.333334,-107.162 -329.63587,-210.7102 -98.64186,-91.29 -19.99587,-268.3534 116.279294,-239.3396 186.090866,29.4086 351.395266,-115.1738 406.808606,-284.6909 43.33269,-104.9343 47.43425,-222.6835 79.81422,-328.4897 87.72988,-127.1268 227.54941,-17.2322 249.7479,98.8681 52.39913,167.9469 208.72939,252.6113 376.1392,261.062 132.9711,13.2878 291.1386,-58.3612 405.5408,32.1636 95.6285,128.1721 -75.3515,197.8913 -136.7801,282.3469 -129.1125,186.8162 -104.1708,457.4007 46.8224,624.5311 76.964,88.0752 -27.6112,288.3612 -135.9764,174.932 -77.5887,-132.5513 -218.8512,-226.5349 -373.76896,-235.743 -125.38588,-14.8476 -260.93023,64.9128 -276.21784,196.8813 -2.35333,151.8462 -81.83634,328.3956 -246.42855,357.1699 -36.35667,5.3562 -73.66921,0.7405 -108.86316,-9.0327 z"
           sodipodi:nodetypes="cccccccccc" /><path
           id="path4677"
           style="opacity:1;fill:#c64600;stroke-width:19.9999;stroke-linecap:round"
           inkscape:transform-center-x="55.266115"
           inkscape:transform-center-y="125.43228"
           d="M 281.08357,3801.2628 C 249.76194,3549.306 240.04212,3247.9158 18.772705,3080.5498 -105.95631,3008.4305 -320.71322,3055.919 -372.05381,2885.0315 -405.38456,2650.3694 -80.041538,2756.8336 -1.8256686,2586.576 130.04479,2433.1239 98.753217,2223.7903 103.91322,2038.4287 c 67.80846,-226.8569 282.88981,-0.6914 339.66261,114.9687 169.86,148.707 408.16986,78.2851 598.12037,15.02 208.336,-66.8623 245.5073,184.2316 96.6203,282.8913 -121.2286,219.5055 -27.7493,513.5116 173.455,652.7565 111.1521,133.9912 -90.7983,298.4121 -180.213,123.136 -156.50441,-123.0548 -456.42069,-152.1462 -556.84561,54.6385 -36.9042,174.5656 33.1231,426.5785 -190.13062,507.7748 -32.90509,12.1523 -68.73075,15.7661 -103.4987,11.6483 z"
           sodipodi:nodetypes="cccccccccc" /><path
           id="path4679"
           style="opacity:1;fill:#e5a50a;stroke-width:19.9999;stroke-linecap:round"
           inkscape:transform-center-x="-3.9568981"
           inkscape:transform-center-y="161.60366"
           d="M 355.27934,3722.4195 C 285.51278,3520.5321 228.65647,3283.6799 35.873269,3162.1986 c -105.884865,-71.4532 -236.114379,0.025 -344.586509,-52.8889 -113.29415,-38.8371 -113.03002,-211.4817 8.4837,-236.9612 171.92633,-45.8898 252.07791,-240.068 226.734557,-405.2119 -1.223386,-97.2562 -54.320387,-190.9856 -46.903527,-285.4808 45.637168,-136.1369 189.277556,-55.9621 251.51791,19.7682 106.1401,119.052 273.54882,110.3999 408.26905,52.2911 105.71708,-36.4893 213.70909,-155.1705 330.57091,-100.9504 114.52966,86.2143 -23.96751,192.3267 -25.94313,292.8824 -25.86274,192.9318 90.08004,391.7272 266.76347,470.7829 94.4694,44.0316 81.4457,244.9477 -47.7529,191.5735 -117.91384,-85.3486 -280.39339,-108.8111 -414.30156,-46.8553 -103.44751,40.4288 -164.15195,158.8022 -125.70785,264.9011 68.98596,147.2331 21.45373,376.7623 -167.73805,396.3702 z"
           sodipodi:nodetypes="cccccccccc" /><path
           id="path4681"
           style="opacity:1;fill:#26a269;stroke-width:20;stroke-linecap:round"
           inkscape:transform-center-x="-57.486761"
           inkscape:transform-center-y="63.631539"
           d="m 482.25746,3409.3645 c -84.65906,-107.3321 -168.8749,-238.5135 -310.95873,-271.357 -79.034235,-20.8981 -142.69738,49.713 -219.3932,40.5641 -76.64722,0.374 -112.82605,-104.0244 -44.748615,-145.0001 89.2008836,-60.2819 101.1757574,-184.6942 58.642401,-277.0259 -22.805816,-60.5948 -66.947466,-111.2526 -94.656276,-167.9458 -12.94907,-87.1295 88.099671,-95.7855 142.557282,-56.0557 85.331726,48.1877 181.104288,25.4826 253.618118,-33.9585 63.47049,-46.049 101.23415,-140.7679 186.25233,-148.2477 89.7532,16.1666 45.66171,111.7937 52.95355,170.9023 18.94938,128.1133 134.70493,231.1415 262.69623,241.9817 66.3632,6.7278 100.78106,130.8986 11.46177,125.8343 -83.94208,-25.0157 -179.39626,-9.1679 -247.52899,47.3192 -58.02418,42.6379 -83.44132,128.6504 -38.42353,189.5885 58.14712,64.1838 93.77713,168.694 36.40349,244.7739 -13.06265,16.3885 -30.40569,28.9947 -48.87583,38.6267 z"
           sodipodi:nodetypes="cccccccccc" /><path
           id="path4683"
           style="opacity:1;fill:#1a5fb4;stroke-width:20;stroke-linecap:round"
           inkscape:transform-center-x="0.15753172"
           inkscape:transform-center-y="-0.15754635"
           d="m 532.06752,3225.8703 c -91.92302,-40.8669 -190.71801,-96.4158 -294.69216,-72.7409 -61.0733,11.2585 -80.38437,78.5569 -131.87824,103.0946 -45.659521,27.9979 -112.2570851,-16.5042 -88.152773,-69.4946 30.5926,-58.508 22.318379,-131.9713 -22.7557187,-181.1835 -40.1834093,-45.9026 -94.8171983,-75.5021 -148.2025983,-103.3532 -41.75209,-42.3251 2.72568,-100.343 55.869732,-91.027 70.416336,0.1204 134.325369,-32.7239 162.676896,-98.9714 32.448492,-54.2686 22.828474,-129.8201 72.070332,-173.9737 59.05296,-28.357 79.49882,42.0276 94.91192,82.2086 54.4941,85.0833 172.52287,116.8542 264.40638,77.8257 46.99831,-18.9415 113.34272,53.0094 50.41015,79.6814 -80.20262,15.3723 -153.41389,84.3501 -156.90787,168.7015 -4.44947,51.3278 40.84538,89.1221 85.58203,103.2566 60.97689,32.4205 104.3529,114.173 56.66192,175.9759 z"
           sodipodi:nodetypes="cccccccccc" /></g></g></g></svg>
