<?xml version="1.0" encoding="UTF-8" standalone="no"?>
<!-- Created with Inkscape (http://www.inkscape.org/) -->

<svg
   width="1920"
   height="1080"
   viewBox="0 0 1920 1080"
   version="1.1"
   id="svg5"
   inkscape:version="1.2.2 (b0a8486541, 2022-12-01)"
   sodipodi:docname="waves.svg"
   xml:space="preserve"
   inkscape:export-filename="waves-l.png"
   inkscape:export-xdpi="96"
   inkscape:export-ydpi="96"
   xmlns:inkscape="http://www.inkscape.org/namespaces/inkscape"
   xmlns:sodipodi="http://sodipodi.sourceforge.net/DTD/sodipodi-0.dtd"
   xmlns="http://www.w3.org/2000/svg"
   xmlns:svg="http://www.w3.org/2000/svg"><sodipodi:namedview
     id="namedview7"
     pagecolor="#ffffff"
     bordercolor="#666666"
     borderopacity="1.0"
     inkscape:showpageshadow="2"
     inkscape:pageopacity="0.0"
     inkscape:pagecheckerboard="0"
     inkscape:deskcolor="#d1d1d1"
     inkscape:document-units="px"
     showgrid="false"
     inkscape:zoom="0.39186088"
     inkscape:cx="2498.3356"
     inkscape:cy="761.74993"
     inkscape:window-width="2560"
     inkscape:window-height="1371"
     inkscape:window-x="0"
     inkscape:window-y="0"
     inkscape:window-maximized="1"
     inkscape:current-layer="layer1" /><defs
     id="defs2"><clipPath
       id="vlpa"><path
         d="m0 200.3h320v-200.3h-320v200.3z"
         id="path3040" /></clipPath><filter
       inkscape:collect="always"
       style="color-interpolation-filters:sRGB"
       id="filter2093"
       x="-0.051119854"
       y="-0.095449391"
       width="1.1022397"
       height="1.1908988"><feGaussianBlur
         inkscape:collect="always"
         stdDeviation="41.037522"
         id="feGaussianBlur2095" /></filter><filter
       inkscape:collect="always"
       style="color-interpolation-filters:sRGB"
       id="filter2099"
       x="-0.04186707"
       y="-0.067953004"
       width="1.0837341"
       height="1.135906"><feGaussianBlur
         inkscape:collect="always"
         stdDeviation="34.635664"
         id="feGaussianBlur2101" /></filter><filter
       inkscape:collect="always"
       style="color-interpolation-filters:sRGB"
       id="filter2175"
       x="-0.052762209"
       y="-0.079662061"
       width="1.1055244"
       height="1.1593241"><feGaussianBlur
         inkscape:collect="always"
         stdDeviation="50.668255"
         id="feGaussianBlur2177" /></filter><filter
       inkscape:collect="always"
       style="color-interpolation-filters:sRGB"
       id="filter2181"
       x="-0.055917126"
       y="-0.073408623"
       width="1.1118343"
       height="1.1468172"><feGaussianBlur
         inkscape:collect="always"
         stdDeviation="57.330285"
         id="feGaussianBlur2183" /></filter><filter
       inkscape:collect="always"
       style="color-interpolation-filters:sRGB"
       id="filter2187"
       x="-0.061887743"
       y="-0.065156354"
       width="1.1237755"
       height="1.1303127"><feGaussianBlur
         inkscape:collect="always"
         stdDeviation="62.48321"
         id="feGaussianBlur2189" /></filter><filter
       inkscape:collect="always"
       style="color-interpolation-filters:sRGB"
       id="filter2193"
       x="-0.065614691"
       y="-0.061479828"
       width="1.1312294"
       height="1.1229597"><feGaussianBlur
         inkscape:collect="always"
         stdDeviation="64.783838"
         id="feGaussianBlur2195" /></filter></defs><g
     inkscape:label="Capa 1"
     inkscape:groupmode="layer"
     id="layer1"><rect
       style="opacity:1;fill:#8ff0a4;fill-opacity:1;stroke-width:20;stroke-linecap:round"
       id="rect234"
       width="1920"
       height="1080"
       x="0"
       y="0"
       rx="1.8656181"
       ry="1.68121"
       inkscape:export-filename="waves-l.png"
       inkscape:export-xdpi="96"
       inkscape:export-ydpi="96" /><path
       style="fill:#000000;fill-opacity:0.14;stroke-width:1.19119;filter:url(#filter2193)"
       d="M 359.08561,2133.4213 C 1031.6713,1896.7278 699.1119,1326.5357 936.7404,1011.0158 c 174.6432,-213.7867 601.6382,-44.08348 785.6148,-247.9466 205.3612,-227.55921 185.6218,-900.64 185.6218,-900.64 L 1648.159,-395.5579 -461.11949,1154.5045 Z"
       id="path2191"
       sodipodi:nodetypes="ccacccc" /><path
       style="fill:#dc8add;fill-opacity:1;stroke-width:1.19119"
       d="M 359.08561,2133.4213 C 1031.6713,1896.7278 699.1119,1326.5357 936.7404,1011.0158 c 174.6432,-213.7867 601.6382,-44.08348 785.6148,-247.9466 205.3612,-227.55921 185.6218,-900.64 185.6218,-900.64 L 1648.159,-395.5579 -461.11949,1154.5045 Z"
       id="path1348"
       sodipodi:nodetypes="ccacccc" /><path
       style="fill:#000000;fill-opacity:0.14;stroke-width:1.15839;filter:url(#filter2187)"
       d="M 167.63001,1807.3401 C 843.5558,1652.7241 585.0359,1065.1729 849.3854,786.48811 1041.6732,599.16135 1432.7293,808.74151 1635.76,633.44835 1836.0035,460.56157 1906.0531,-118.601 1906.0531,-118.601 L 1691.6826,-494.1961 -517.03909,771.16722 Z"
       id="path2185"
       sodipodi:nodetypes="ccacccc" /><path
       style="fill:#f66151;fill-opacity:1;stroke-width:1.15839"
       d="M 167.63001,1807.3401 C 843.5558,1652.7241 585.0359,1065.1729 849.3854,786.48811 1041.6732,599.16135 1432.7293,808.74151 1635.76,633.44835 1836.0035,460.56157 1906.0531,-118.601 1906.0531,-118.601 L 1691.6826,-494.1961 -517.03909,771.16722 Z"
       id="path1346"
       sodipodi:nodetypes="ccacccc" /><path
       style="fill:#000000;fill-opacity:0.14;stroke-width:1.1111;filter:url(#filter2181)"
       d="M -89.27529,1353.2889 C 580.0624,1331.7851 441.9886,735.39744 743.5543,522.96935 c 216.5526,-140.13284 549.2671,127.00363 773.8154,0.0772 221.4657,-125.18402 393.5237,-653.91275 393.5237,-653.91275 L 1776.046,-521.0506 -549.76029,259.88697 Z"
       id="path2179"
       sodipodi:nodetypes="ccacccc" /><path
       style="fill:#ffa348;fill-opacity:1;stroke-width:1.1111"
       d="M -89.27529,1353.2889 C 580.0624,1331.7851 441.9886,735.39744 743.5543,522.96935 c 216.5526,-140.13284 549.2671,127.00363 773.8154,0.0772 221.4657,-125.18402 393.5237,-653.91275 393.5237,-653.91275 L 1776.046,-521.0506 -549.76029,259.88697 Z"
       id="path1344"
       sodipodi:nodetypes="ccacccc" /><path
       style="fill:#000000;fill-opacity:0.14;stroke-width:1.02869;filter:url(#filter2175)"
       d="M -138.83799,1001.1382 C 478.9785,1053.3081 416.1127,490.04491 716.2574,327.11568 c 214.1984,-105.58613 491.4404,175.82752 711.5718,83.24506 217.1095,-91.3115 432.1602,-559.02264 432.1602,-559.02264 l -82.0628,-373.2973 -2222.68929,468.1385 z"
       id="path2173"
       sodipodi:nodetypes="ccacccc" /><path
       style="fill:#f9f06b;fill-opacity:1;stroke-width:1.02869"
       d="M -138.83799,1001.1382 C 478.9785,1053.3081 416.1127,490.04491 716.2574,327.11568 c 214.1984,-105.58613 491.4404,175.82752 711.5718,83.24506 217.1095,-91.3115 432.1602,-559.02264 432.1602,-559.02264 l -82.0628,-373.2973 -2222.68929,468.1385 z"
       id="path1340"
       sodipodi:nodetypes="ccacccc" /><path
       style="fill:#000000;fill-opacity:0.14;stroke-width:0.861828;opacity:1;filter:url(#filter2099)"
       d="M -4.87829,705.49235 C 510.8264,767.72198 475.1036,294.23845 731.2938,166.83671 c 182.5093,-81.97138 402.1892,150.37066 593.269,91.06249 188.5107,-58.51076 431.5615,-405.4537 431.5615,-405.4537 l -110.447,-364.6258 -1875.01789,325.2157 z"
       id="path2097"
       sodipodi:nodetypes="ccacccc" /><path
       style="fill:#8ff0a4;fill-opacity:1;stroke-width:0.861828"
       d="M -4.87829,705.49235 C 510.8264,767.72198 475.1036,294.23845 731.2938,166.83671 c 182.5093,-81.97138 402.1892,150.37066 593.269,91.06249 188.5107,-58.51076 431.5615,-405.4537 431.5615,-405.4537 l -110.447,-364.6258 -1875.01789,325.2157 z"
       id="path1342"
       sodipodi:nodetypes="ccacccc" /><path
       style="fill:#000000;fill-opacity:0.1359569;stroke-width:0.861828;filter:url(#filter2093)"
       d="M -134.02439,441.3422 C 370.53351,564.81339 391.70511,90.45643 661.2956,-5.38517 852.2998,-64.9363 1042.1767,189.56382 1239.4119,155.99007 1414.587,126.17143 1676.53,-149.1443 1676.53,-149.1443 l -26.1927,-421.0042 -1900.45699,98.5917 z"
       id="path1414"
       sodipodi:nodetypes="ccacccc" /><path
       style="fill:#99c1f1;fill-opacity:1;stroke-width:0.861828"
       d="M -134.02439,441.3422 C 370.53351,564.81339 391.70511,90.45643 661.2956,-5.38517 852.2998,-64.9363 1042.1767,189.56382 1239.4119,155.99007 1414.587,126.17143 1676.53,-149.1443 1676.53,-149.1443 l -26.1927,-421.0042 -1900.45699,98.5917 z"
       id="path317"
       sodipodi:nodetypes="ccacccc" /><g
       clip-path="url(#vlpa)"
       id="g3085"
       transform="matrix(0.38342849,0,0,-0.38342849,1772.6942,1056.5251)"
       style="fill:#ffffff;stroke-width:3.26006;fill-opacity:0.59478372"><g
         transform="translate(262.7,162.7)"
         id="g3047"
         style="fill:#ffffff;stroke-width:3.26006;fill-opacity:0.59478372"><path
           d="m 0,0 c 0.175,4.73 2.156,9.12 5.614,12.34 3.46,3.231 7.975,4.9 12.71,4.75 9.761,-0.349 17.43,-8.589 17.1,-18.34 C 35.24,-5.98 33.26,-10.37 29.81,-13.58 26.35,-16.83 21.846,-18.5 17.09,-18.34 7.341,-17.981 -0.32,-9.76 0.01,0 Z m 47.35,-17.44 c 0.805,0.532 1.396,0.972 1.645,1.07 l 0.269,0.419 c -0.681,4.28 -7.06,25.03 -11.88,30.02 -1.329,1.36 -2.394,2.7 -4.549,3.961 -17.46,10.17 -58.86,16.31 -60.8,16.59 l -0.33,-0.091 -0.124,-0.3 c 0,0 -0.16,-8.58 -0.184,-9.539 -4.229,1.421 -34.97,11.35 -63.79,12.35 -24.44,0.859 -60.03,4.02 -107.2,-24.98 l -1.395,-0.868 c -22.19,-13.84 -37.51,-30.91 -45.52,-50.74 -2.512,-6.24 -5.89,-20.32 -2.542,-33.57 1.442,-5.791 4.131,-11.61 7.756,-16.82 8.194,-11.77 21.94,-19.58 36.75,-20.9 20.9,-1.87 36.73,7.519 42.36,25.1 3.871,12.13 0,29.93 -14.84,39.01 -12.07,7.391 -25.05,5.711 -32.58,0.73 -6.532,-4.331 -10.23,-11.06 -10.17,-18.45 0.151,-13.11 11.44,-20.08 19.56,-20.1 2.359,0 4.728,0.41 7.399,1.28 0.951,0.29 1.845,0.649 2.831,1.259 l 0.309,0.181 0.194,0.13 -0.065,-0.039 c 1.851,1.261 2.964,3.312 2.964,5.511 0,0.6 -0.084,1.208 -0.256,1.82 -0.959,3.32 -4.239,5.329 -7.638,4.71 l -0.459,-0.109 -0.621,-0.19 -0.901,-0.31 c -1.87,-0.46 -3.27,-0.5 -3.569,-0.51 -0.951,0.061 -5.625,1.461 -5.625,6.58 v 0.07 c 0,1.88 0.754,3.199 1.17,3.92 1.454,2.28 5.435,4.518 10.81,4.05 7.059,-0.611 12.15,-4.231 15.52,-11.06 3.129,-6.349 2.31,-14.16 -2.11,-19.88 -4.39,-5.669 -12.2,-8.078 -22.6,-6.959 -10.48,1.159 -19.34,7.19 -24.3,16.58 -4.856,9.178 -5.121,20.06 -0.685,28.42 10.61,20.03 30.65,19.82 41.64,17.92 16.26,-2.821 34.76,-17.82 41.32,-35.14 1.06,-2.761 1.6,-4.949 2.072,-6.951 l 0.708,-2.99 18.37,-8.969 0.24,-0.181 0.446,0.041 0.081,0.529 c -0.114,0.411 -0.381,0.789 -0.805,5.93 -0.349,4.562 -1.06,17.05 5.228,23.24 2.441,2.419 6.161,4.578 9.099,5.269 12.04,2.941 26.16,0.912 39.51,-14.54 6.911,-7.981 10.28,-11.62 11.97,-13.25 l 0.59,-0.532 0.694,-0.519 c 0.554,-0.301 22.96,-10.62 22.96,-10.62 l 0.461,0.11 0.009,0.479 c -0.149,0.17 -14.2,18.33 -11.7,33.28 1.969,11.91 11.45,10.83 24.56,9.35 4.28,-0.5 9.152,-1.06 14.2,-1.172 14.08,-0.089 29.25,2.511 38.6,6.601 6.049,2.63 9.909,4.38 12.33,6.579 0.87,0.721 1.32,1.891 1.791,3.15 l 0.329,0.831 c 0.391,1.021 0.967,3.171 1.219,4.35 0.102,0.519 0.162,1.068 -0.209,1.359 l -1.294,-0.24 c -4.106,-2.471 -14.37,-7.15 -23.96,-7.35 -11.91,-0.241 -35.9,11.98 -38.4,13.28 l -0.241,0.279 c -0.589,1.44 -4.19,9.949 -4.96,11.75 17.27,-11.38 31.59,-17.67 42.56,-18.64 12.21,-1.087 21.72,5.574 25.79,8.422 H 47.361 Z M 20.2,-1.64 c -3.031,0 -5.479,1.64 -5.479,3.65 0,2.029 2.448,3.66 5.479,3.66 3.031,0 5.486,-1.631 5.486,-3.66 C 25.684,0 23.229,-1.64 20.2,-1.64 M 18.179,11.87 C 14.868,11.989 11.729,10.819 9.329,8.569 6.93,6.319 5.515,3.271 5.415,-0.03 c -0.23,-6.821 5.111,-12.56 11.92,-12.81 3.309,-0.1 6.464,1.07 8.878,3.32 2.409,2.261 3.795,5.311 3.9,8.599 0.23,6.819 -5.109,12.55 -11.93,12.79 z"
           style="fill:#ffffff;stroke-width:3.26006;fill-opacity:0.59478372"
           id="path3045" /></g><g
         transform="translate(134,60.29)"
         id="g3051"
         style="fill:#ffffff;stroke-width:3.26006;fill-opacity:0.59478372"><path
           d="m 0,0 c -7.784,0 -12.06,-6.58 -12.06,-11.13 v -5.84 c 0,-6.7 5.474,-10.85 10.55,-10.85 h 17.82 c 2.245,0 2.715,-1.47 2.715,-2.71 v -3.769 c 0,-0.4 -0.081,-4.02 -2.715,-4.02 h -24.3 c -2.415,0 -4.161,-1.68 -4.161,-3.98 v -1.041 c 0,-2.291 1.746,-3.961 4.161,-3.961 h 25.62 c 6.698,0 11.02,4.66 11.02,11.88 v 6.302 c 0,6.779 -4.87,9.809 -9.706,9.809 H 1.414 c -2.64,0 -3.836,1.98 -3.836,3.38 v 3.48 c 0,2.19 1.465,3.46 4.025,3.46 h 19.41 c 2.38,0 4.171,1.71 4.171,3.971 v 1.04 c 0,2.269 -1.821,3.981 -4.251,3.981 H 0.013 Z"
           style="fill:#ffffff;stroke-width:3.26006;fill-opacity:0.59478372"
           id="path3049" /></g><g
         transform="translate(206.8,60.29)"
         id="g3055"
         style="fill:#ffffff;stroke-width:3.26006;fill-opacity:0.59478372"><path
           d="m 0,0 c -2.301,0 -4.155,-1.87 -4.155,-4.171 v -29.84 c 0,-2.391 -1.95,-4.311 -4.311,-4.311 h -13.54 c -2.369,0 -4.309,1.92 -4.309,4.311 v 29.84 c 0,2.301 -1.87,4.171 -4.169,4.171 h -1.31 c -2.335,0 -4.171,-1.842 -4.171,-4.171 v -30.97 c 0,-7.21 5.674,-12.44 13.49,-12.44 h 14.48 c 7.805,0 13.48,5.229 13.48,12.44 v 30.97 C 5.485,-1.842 3.656,0 1.325,0 H 0.006 Z"
           style="fill:#ffffff;stroke-width:3.26006;fill-opacity:0.59478372"
           id="path3053" /></g><g
         transform="translate(232.8,60.29)"
         id="g3059"
         style="fill:#ffffff;stroke-width:3.26006;fill-opacity:0.59478372"><path
           d="m 0,0 c -7.78,0 -12.07,-6.58 -12.07,-11.13 v -5.84 c 0,-6.7 5.485,-10.85 10.56,-10.85 H 16.3 c 2.248,0 2.72,-1.47 2.72,-2.71 v -3.769 c 0,-0.4 -0.081,-4.02 -2.72,-4.02 H -8.01 c -2.404,0 -4.16,-1.68 -4.16,-3.98 v -1.041 c 0,-2.291 1.756,-3.961 4.16,-3.961 h 25.63 c 6.7,0 11.04,4.66 11.04,11.88 v 6.302 c 0,6.779 -4.884,9.809 -9.72,9.809 H 1.41 c -2.646,0 -3.839,1.98 -3.839,3.38 v 3.48 c 0,2.19 1.464,3.46 4.025,3.46 h 19.42 c 2.374,0 4.158,1.71 4.158,3.971 v 1.04 c 0,2.269 -1.819,3.981 -4.26,3.981 H 0.004 Z"
           style="fill:#ffffff;stroke-width:3.26006;fill-opacity:0.59478372"
           id="path3057" /></g><g
         transform="translate(273.7,60.29)"
         id="g3063"
         style="fill:#ffffff;stroke-width:3.26006;fill-opacity:0.59478372"><path
           d="m 0,0 c -2.31,0 -4.055,-1.712 -4.055,-3.981 v -39.36 c 0,-2.259 1.705,-3.96 3.964,-3.96 h 31.36 c 2.415,0 4.16,1.67 4.16,3.96 v 1.042 c 0,2.3 -1.745,3.98 -4.16,3.98 H 5.579 v 10.02 h 18.82 c 2.41,0 4.161,1.69 4.161,3.981 v 1.04 c 0,2.301 -1.751,3.971 -4.161,3.971 H 5.579 v 10.32 h 24.38 c 2.406,0 4.16,1.659 4.16,3.971 v 1.04 c 0,2.301 -1.754,3.981 -4.16,3.981 H -0.011 V 0 Z"
           style="fill:#ffffff;stroke-width:3.26006;fill-opacity:0.59478372"
           id="path3061" /></g><g
         transform="translate(5.053,20.49)"
         id="g3067"
         style="fill:#ffffff;stroke-width:3.26006;fill-opacity:0.59478372"><path
           d="m 0,0 v 13.55 c 0,1.589 1.305,2.889 2.901,2.889 h 7.478 c 1.561,0 2.891,-1.329 2.891,-2.889 V 0 c 0,-1.6 -1.295,-2.899 -2.891,-2.899 H 2.845 C 1.245,-2.899 0,-1.628 0,0 m 2.077,21.08 c -3.931,0 -7.13,-3.059 -7.13,-6.83 V -0.59 c 0,-3.831 3.096,-6.951 6.891,-6.951 h 9.599 c 3.795,0 6.891,3.12 6.891,6.951 v 14.84 c 0,3.769 -3.201,6.83 -7.13,6.83 H 2.076 Z"
           style="fill:#ffffff;stroke-width:3.26006;fill-opacity:0.59478372"
           id="path3065" /></g><g
         transform="translate(35.51,20.78)"
         id="g3071"
         style="fill:#ffffff;stroke-width:3.26006;fill-opacity:0.59478372"><path
           d="m 0,0 v 12.96 c 0,1.791 1.4,3.189 3.188,3.189 h 7.011 c 1.79,0 3.188,-1.4 3.188,-3.189 V 0 c 0,-1.759 -1.435,-3.188 -3.188,-3.188 H 3.188 C 1.433,-3.188 0,-1.759 0,0 Z m 9.602,20.96 c -2.767,0 -4.854,-0.989 -6.529,-1.799 -1.021,-0.49 -1.905,-0.912 -2.591,-0.912 -0.31,0 -0.575,0.14 -0.715,0.37 l -0.639,1.22 c -0.159,0.321 -0.799,0.949 -1.59,0.949 h -0.949 c -0.912,0 -1.642,-0.819 -1.642,-1.818 v -37.64 c 0,-1.18 0.931,-2.11 2.11,-2.11 h 0.821 c 1.17,0 2.12,0.94 2.12,2.11 v 12.49 c 0,0.37 0.241,0.77 0.484,0.77 0.686,0 1.57,-0.402 2.591,-0.87 1.675,-0.77 3.762,-1.719 6.529,-1.719 h 0.886 c 4.9,0 7.949,2.801 7.949,7.3 v 14.37 c 0,4.43 -3.114,7.29 -7.949,7.29 H 9.602 v 0.002 z"
           style="fill:#ffffff;stroke-width:3.26006;fill-opacity:0.59478372"
           id="path3069" /></g><g
         transform="translate(66.07,34.09)"
         id="g3075"
         style="fill:#ffffff;stroke-width:3.26006;fill-opacity:0.59478372"><path
           d="m 0,0 c 0,1.591 1.251,2.839 2.843,2.839 h 7.71 c 1.589,0 2.829,-1.248 2.829,-2.839 V -4.599 H 0.002 C 0.004,-3.999 0.004,0 0.004,0 Z m 2.075,7.48 c -3.931,0 -7.121,-3.058 -7.121,-6.829 v -14.73 c 0,-3.82 3.101,-7.059 6.76,-7.059 h 9.903 c 1.225,0 2.11,0.848 2.11,2.001 v 0.649 c 0,1.159 -0.885,1.99 -2.11,1.99 H 3.481 c -2.28,0 -3.483,1.121 -3.483,3.252 v 4.309 h 14.68 c 2.361,0 3.757,1.44 3.757,3.88 v 5.71 c 0,3.769 -3.196,6.83 -7.11,6.83 H 2.077 V 7.479 Z"
           style="fill:#ffffff;stroke-width:3.26006;fill-opacity:0.59478372"
           id="path3073" /></g><g
         transform="translate(104.9,41.74)"
         id="g3079"
         style="fill:#ffffff;stroke-width:3.26006;fill-opacity:0.59478372"><path
           d="m 0,0 c -2.759,0 -4.841,-0.989 -6.521,-1.791 -1.045,-0.491 -1.938,-0.92 -2.667,-0.92 -0.321,0 -0.451,0.04 -0.7,0.471 l -0.581,1.06 c -0.333,0.67 -0.899,1.008 -1.664,1.008 h -0.816 c -0.985,0 -1.704,-0.768 -1.704,-1.819 v -24.69 c 0,-1.169 0.924,-2.109 2.115,-2.109 h 0.815 c 1.17,0 2.124,0.95 2.124,2.109 v 18.68 c 0,1.75 1.43,3.188 3.18,3.188 h 7.014 c 1.755,0 3.185,-1.438 3.185,-3.188 v -18.68 c 0,-1.169 0.929,-2.109 2.11,-2.109 h 0.824 c 1.17,0 2.12,0.95 2.12,2.109 v 19.39 C 8.834,-2.86 5.719,0 0.88,0 Z"
           style="fill:#ffffff;stroke-width:3.26006;fill-opacity:0.59478372"
           id="path3077" /></g><g
         transform="translate(315.4,18.75)"
         id="g3083"
         style="fill:#ffffff;stroke-width:3.26006;fill-opacity:0.59478372"><path
           d="m 0,0 h 0.503 c 0.574,0 1.06,0.207 1.06,0.747 0,0.382 -0.277,0.765 -1.06,0.765 C 0.277,1.512 0.121,1.494 0,1.475 Z M 0,-2.415 H -0.695 V 1.943 C -0.33,1.996 0.018,2.048 0.538,2.048 1.2,2.048 1.633,1.91 1.892,1.719 2.154,1.529 2.294,1.235 2.294,0.815 2.294,0.244 1.912,-0.104 1.443,-0.244 V -0.281 C 1.826,-0.349 2.085,-0.696 2.173,-1.34 2.278,-2.019 2.38,-2.278 2.45,-2.417 H 1.721 C 1.615,-2.278 1.512,-1.878 1.426,-1.305 1.321,-0.751 1.043,-0.54 0.488,-0.54 H 0.002 V -2.415 Z M 0.73,3.16 c -1.719,0 -3.126,-1.476 -3.126,-3.3 0,-1.859 1.407,-3.317 3.143,-3.317 1.736,-0.019 3.126,1.458 3.126,3.299 0,1.842 -1.39,3.318 -3.126,3.318 z m 0.017,0.607 c 2.136,0 3.838,-1.736 3.838,-3.909 0,-2.205 -1.703,-3.923 -3.855,-3.923 -2.137,0 -3.873,1.718 -3.873,3.923 0,2.171 1.736,3.909 3.873,3.909 z"
           style="fill:#ffffff;stroke-width:3.26006;fill-opacity:0.59478372"
           id="path3081" /></g></g><rect
       style="opacity:1;fill:#26a269;fill-opacity:0.992389;stroke-width:20;stroke-linecap:round"
       id="rect4127"
       width="1920"
       height="1080"
       x="3255.6992"
       y="0"
       rx="1.8656181"
       ry="1.68121"
       inkscape:export-filename="waves-d.png"
       inkscape:export-xdpi="96"
       inkscape:export-ydpi="96" /><g
       clip-path="url(#vlpa)"
       id="g4179"
       transform="matrix(0.38342849,0,0,-0.38342849,5028.3935,1056.525)"
       style="fill:#000000;fill-opacity:0.594784;stroke-width:3.26006"><g
         transform="translate(262.7,162.7)"
         id="g4141"
         style="fill:#000000;fill-opacity:0.594784;stroke-width:3.26006"><path
           d="m 0,0 c 0.175,4.73 2.156,9.12 5.614,12.34 3.46,3.231 7.975,4.9 12.71,4.75 9.761,-0.349 17.43,-8.589 17.1,-18.34 C 35.24,-5.98 33.26,-10.37 29.81,-13.58 26.35,-16.83 21.846,-18.5 17.09,-18.34 7.341,-17.981 -0.32,-9.76 0.01,0 Z m 47.35,-17.44 c 0.805,0.532 1.396,0.972 1.645,1.07 l 0.269,0.419 c -0.681,4.28 -7.06,25.03 -11.88,30.02 -1.329,1.36 -2.394,2.7 -4.549,3.961 -17.46,10.17 -58.86,16.31 -60.8,16.59 l -0.33,-0.091 -0.124,-0.3 c 0,0 -0.16,-8.58 -0.184,-9.539 -4.229,1.421 -34.97,11.35 -63.79,12.35 -24.44,0.859 -60.03,4.02 -107.2,-24.98 l -1.395,-0.868 c -22.19,-13.84 -37.51,-30.91 -45.52,-50.74 -2.512,-6.24 -5.89,-20.32 -2.542,-33.57 1.442,-5.791 4.131,-11.61 7.756,-16.82 8.194,-11.77 21.94,-19.58 36.75,-20.9 20.9,-1.87 36.73,7.519 42.36,25.1 3.871,12.13 0,29.93 -14.84,39.01 -12.07,7.391 -25.05,5.711 -32.58,0.73 -6.532,-4.331 -10.23,-11.06 -10.17,-18.45 0.151,-13.11 11.44,-20.08 19.56,-20.1 2.359,0 4.728,0.41 7.399,1.28 0.951,0.29 1.845,0.649 2.831,1.259 l 0.309,0.181 0.194,0.13 -0.065,-0.039 c 1.851,1.261 2.964,3.312 2.964,5.511 0,0.6 -0.084,1.208 -0.256,1.82 -0.959,3.32 -4.239,5.329 -7.638,4.71 l -0.459,-0.109 -0.621,-0.19 -0.901,-0.31 c -1.87,-0.46 -3.27,-0.5 -3.569,-0.51 -0.951,0.061 -5.625,1.461 -5.625,6.58 v 0.07 c 0,1.88 0.754,3.199 1.17,3.92 1.454,2.28 5.435,4.518 10.81,4.05 7.059,-0.611 12.15,-4.231 15.52,-11.06 3.129,-6.349 2.31,-14.16 -2.11,-19.88 -4.39,-5.669 -12.2,-8.078 -22.6,-6.959 -10.48,1.159 -19.34,7.19 -24.3,16.58 -4.856,9.178 -5.121,20.06 -0.685,28.42 10.61,20.03 30.65,19.82 41.64,17.92 16.26,-2.821 34.76,-17.82 41.32,-35.14 1.06,-2.761 1.6,-4.949 2.072,-6.951 l 0.708,-2.99 18.37,-8.969 0.24,-0.181 0.446,0.041 0.081,0.529 c -0.114,0.411 -0.381,0.789 -0.805,5.93 -0.349,4.562 -1.06,17.05 5.228,23.24 2.441,2.419 6.161,4.578 9.099,5.269 12.04,2.941 26.16,0.912 39.51,-14.54 6.911,-7.981 10.28,-11.62 11.97,-13.25 l 0.59,-0.532 0.694,-0.519 c 0.554,-0.301 22.96,-10.62 22.96,-10.62 l 0.461,0.11 0.009,0.479 c -0.149,0.17 -14.2,18.33 -11.7,33.28 1.969,11.91 11.45,10.83 24.56,9.35 4.28,-0.5 9.152,-1.06 14.2,-1.172 14.08,-0.089 29.25,2.511 38.6,6.601 6.049,2.63 9.909,4.38 12.33,6.579 0.87,0.721 1.32,1.891 1.791,3.15 l 0.329,0.831 c 0.391,1.021 0.967,3.171 1.219,4.35 0.102,0.519 0.162,1.068 -0.209,1.359 l -1.294,-0.24 c -4.106,-2.471 -14.37,-7.15 -23.96,-7.35 -11.91,-0.241 -35.9,11.98 -38.4,13.28 l -0.241,0.279 c -0.589,1.44 -4.19,9.949 -4.96,11.75 17.27,-11.38 31.59,-17.67 42.56,-18.64 12.21,-1.087 21.72,5.574 25.79,8.422 H 47.361 Z M 20.2,-1.64 c -3.031,0 -5.479,1.64 -5.479,3.65 0,2.029 2.448,3.66 5.479,3.66 3.031,0 5.486,-1.631 5.486,-3.66 C 25.684,0 23.229,-1.64 20.2,-1.64 M 18.179,11.87 C 14.868,11.989 11.729,10.819 9.329,8.569 6.93,6.319 5.515,3.271 5.415,-0.03 c -0.23,-6.821 5.111,-12.56 11.92,-12.81 3.309,-0.1 6.464,1.07 8.878,3.32 2.409,2.261 3.795,5.311 3.9,8.599 0.23,6.819 -5.109,12.55 -11.93,12.79 z"
           style="fill:#000000;fill-opacity:0.594784;stroke-width:3.26006"
           id="path4139" /></g><g
         transform="translate(134,60.29)"
         id="g4145"
         style="fill:#000000;fill-opacity:0.594784;stroke-width:3.26006"><path
           d="m 0,0 c -7.784,0 -12.06,-6.58 -12.06,-11.13 v -5.84 c 0,-6.7 5.474,-10.85 10.55,-10.85 h 17.82 c 2.245,0 2.715,-1.47 2.715,-2.71 v -3.769 c 0,-0.4 -0.081,-4.02 -2.715,-4.02 h -24.3 c -2.415,0 -4.161,-1.68 -4.161,-3.98 v -1.041 c 0,-2.291 1.746,-3.961 4.161,-3.961 h 25.62 c 6.698,0 11.02,4.66 11.02,11.88 v 6.302 c 0,6.779 -4.87,9.809 -9.706,9.809 H 1.414 c -2.64,0 -3.836,1.98 -3.836,3.38 v 3.48 c 0,2.19 1.465,3.46 4.025,3.46 h 19.41 c 2.38,0 4.171,1.71 4.171,3.971 v 1.04 c 0,2.269 -1.821,3.981 -4.251,3.981 H 0.013 Z"
           style="fill:#000000;fill-opacity:0.594784;stroke-width:3.26006"
           id="path4143" /></g><g
         transform="translate(206.8,60.29)"
         id="g4149"
         style="fill:#000000;fill-opacity:0.594784;stroke-width:3.26006"><path
           d="m 0,0 c -2.301,0 -4.155,-1.87 -4.155,-4.171 v -29.84 c 0,-2.391 -1.95,-4.311 -4.311,-4.311 h -13.54 c -2.369,0 -4.309,1.92 -4.309,4.311 v 29.84 c 0,2.301 -1.87,4.171 -4.169,4.171 h -1.31 c -2.335,0 -4.171,-1.842 -4.171,-4.171 v -30.97 c 0,-7.21 5.674,-12.44 13.49,-12.44 h 14.48 c 7.805,0 13.48,5.229 13.48,12.44 v 30.97 C 5.485,-1.842 3.656,0 1.325,0 H 0.006 Z"
           style="fill:#000000;fill-opacity:0.594784;stroke-width:3.26006"
           id="path4147" /></g><g
         transform="translate(232.8,60.29)"
         id="g4153"
         style="fill:#000000;fill-opacity:0.594784;stroke-width:3.26006"><path
           d="m 0,0 c -7.78,0 -12.07,-6.58 -12.07,-11.13 v -5.84 c 0,-6.7 5.485,-10.85 10.56,-10.85 H 16.3 c 2.248,0 2.72,-1.47 2.72,-2.71 v -3.769 c 0,-0.4 -0.081,-4.02 -2.72,-4.02 H -8.01 c -2.404,0 -4.16,-1.68 -4.16,-3.98 v -1.041 c 0,-2.291 1.756,-3.961 4.16,-3.961 h 25.63 c 6.7,0 11.04,4.66 11.04,11.88 v 6.302 c 0,6.779 -4.884,9.809 -9.72,9.809 H 1.41 c -2.646,0 -3.839,1.98 -3.839,3.38 v 3.48 c 0,2.19 1.464,3.46 4.025,3.46 h 19.42 c 2.374,0 4.158,1.71 4.158,3.971 v 1.04 c 0,2.269 -1.819,3.981 -4.26,3.981 H 0.004 Z"
           style="fill:#000000;fill-opacity:0.594784;stroke-width:3.26006"
           id="path4151" /></g><g
         transform="translate(273.7,60.29)"
         id="g4157"
         style="fill:#000000;fill-opacity:0.594784;stroke-width:3.26006"><path
           d="m 0,0 c -2.31,0 -4.055,-1.712 -4.055,-3.981 v -39.36 c 0,-2.259 1.705,-3.96 3.964,-3.96 h 31.36 c 2.415,0 4.16,1.67 4.16,3.96 v 1.042 c 0,2.3 -1.745,3.98 -4.16,3.98 H 5.579 v 10.02 h 18.82 c 2.41,0 4.161,1.69 4.161,3.981 v 1.04 c 0,2.301 -1.751,3.971 -4.161,3.971 H 5.579 v 10.32 h 24.38 c 2.406,0 4.16,1.659 4.16,3.971 v 1.04 c 0,2.301 -1.754,3.981 -4.16,3.981 H -0.011 V 0 Z"
           style="fill:#000000;fill-opacity:0.594784;stroke-width:3.26006"
           id="path4155" /></g><g
         transform="translate(5.053,20.49)"
         id="g4161"
         style="fill:#000000;fill-opacity:0.594784;stroke-width:3.26006"><path
           d="m 0,0 v 13.55 c 0,1.589 1.305,2.889 2.901,2.889 h 7.478 c 1.561,0 2.891,-1.329 2.891,-2.889 V 0 c 0,-1.6 -1.295,-2.899 -2.891,-2.899 H 2.845 C 1.245,-2.899 0,-1.628 0,0 m 2.077,21.08 c -3.931,0 -7.13,-3.059 -7.13,-6.83 V -0.59 c 0,-3.831 3.096,-6.951 6.891,-6.951 h 9.599 c 3.795,0 6.891,3.12 6.891,6.951 v 14.84 c 0,3.769 -3.201,6.83 -7.13,6.83 H 2.076 Z"
           style="fill:#000000;fill-opacity:0.594784;stroke-width:3.26006"
           id="path4159" /></g><g
         transform="translate(35.51,20.78)"
         id="g4165"
         style="fill:#000000;fill-opacity:0.594784;stroke-width:3.26006"><path
           d="m 0,0 v 12.96 c 0,1.791 1.4,3.189 3.188,3.189 h 7.011 c 1.79,0 3.188,-1.4 3.188,-3.189 V 0 c 0,-1.759 -1.435,-3.188 -3.188,-3.188 H 3.188 C 1.433,-3.188 0,-1.759 0,0 Z m 9.602,20.96 c -2.767,0 -4.854,-0.989 -6.529,-1.799 -1.021,-0.49 -1.905,-0.912 -2.591,-0.912 -0.31,0 -0.575,0.14 -0.715,0.37 l -0.639,1.22 c -0.159,0.321 -0.799,0.949 -1.59,0.949 h -0.949 c -0.912,0 -1.642,-0.819 -1.642,-1.818 v -37.64 c 0,-1.18 0.931,-2.11 2.11,-2.11 h 0.821 c 1.17,0 2.12,0.94 2.12,2.11 v 12.49 c 0,0.37 0.241,0.77 0.484,0.77 0.686,0 1.57,-0.402 2.591,-0.87 1.675,-0.77 3.762,-1.719 6.529,-1.719 h 0.886 c 4.9,0 7.949,2.801 7.949,7.3 v 14.37 c 0,4.43 -3.114,7.29 -7.949,7.29 H 9.602 v 0.002 z"
           style="fill:#000000;fill-opacity:0.594784;stroke-width:3.26006"
           id="path4163" /></g><g
         transform="translate(66.07,34.09)"
         id="g4169"
         style="fill:#000000;fill-opacity:0.594784;stroke-width:3.26006"><path
           d="m 0,0 c 0,1.591 1.251,2.839 2.843,2.839 h 7.71 c 1.589,0 2.829,-1.248 2.829,-2.839 V -4.599 H 0.002 C 0.004,-3.999 0.004,0 0.004,0 Z m 2.075,7.48 c -3.931,0 -7.121,-3.058 -7.121,-6.829 v -14.73 c 0,-3.82 3.101,-7.059 6.76,-7.059 h 9.903 c 1.225,0 2.11,0.848 2.11,2.001 v 0.649 c 0,1.159 -0.885,1.99 -2.11,1.99 H 3.481 c -2.28,0 -3.483,1.121 -3.483,3.252 v 4.309 h 14.68 c 2.361,0 3.757,1.44 3.757,3.88 v 5.71 c 0,3.769 -3.196,6.83 -7.11,6.83 H 2.077 V 7.479 Z"
           style="fill:#000000;fill-opacity:0.594784;stroke-width:3.26006"
           id="path4167" /></g><g
         transform="translate(104.9,41.74)"
         id="g4173"
         style="fill:#000000;fill-opacity:0.594784;stroke-width:3.26006"><path
           d="m 0,0 c -2.759,0 -4.841,-0.989 -6.521,-1.791 -1.045,-0.491 -1.938,-0.92 -2.667,-0.92 -0.321,0 -0.451,0.04 -0.7,0.471 l -0.581,1.06 c -0.333,0.67 -0.899,1.008 -1.664,1.008 h -0.816 c -0.985,0 -1.704,-0.768 -1.704,-1.819 v -24.69 c 0,-1.169 0.924,-2.109 2.115,-2.109 h 0.815 c 1.17,0 2.124,0.95 2.124,2.109 v 18.68 c 0,1.75 1.43,3.188 3.18,3.188 h 7.014 c 1.755,0 3.185,-1.438 3.185,-3.188 v -18.68 c 0,-1.169 0.929,-2.109 2.11,-2.109 h 0.824 c 1.17,0 2.12,0.95 2.12,2.109 v 19.39 C 8.834,-2.86 5.719,0 0.88,0 Z"
           style="fill:#000000;fill-opacity:0.594784;stroke-width:3.26006"
           id="path4171" /></g><g
         transform="translate(315.4,18.75)"
         id="g4177"
         style="fill:#000000;fill-opacity:0.594784;stroke-width:3.26006"><path
           d="m 0,0 h 0.503 c 0.574,0 1.06,0.207 1.06,0.747 0,0.382 -0.277,0.765 -1.06,0.765 C 0.277,1.512 0.121,1.494 0,1.475 Z M 0,-2.415 H -0.695 V 1.943 C -0.33,1.996 0.018,2.048 0.538,2.048 1.2,2.048 1.633,1.91 1.892,1.719 2.154,1.529 2.294,1.235 2.294,0.815 2.294,0.244 1.912,-0.104 1.443,-0.244 V -0.281 C 1.826,-0.349 2.085,-0.696 2.173,-1.34 2.278,-2.019 2.38,-2.278 2.45,-2.417 H 1.721 C 1.615,-2.278 1.512,-1.878 1.426,-1.305 1.321,-0.751 1.043,-0.54 0.488,-0.54 H 0.002 V -2.415 Z M 0.73,3.16 c -1.719,0 -3.126,-1.476 -3.126,-3.3 0,-1.859 1.407,-3.317 3.143,-3.317 1.736,-0.019 3.126,1.458 3.126,3.299 0,1.842 -1.39,3.318 -3.126,3.318 z m 0.017,0.607 c 2.136,0 3.838,-1.736 3.838,-3.909 0,-2.205 -1.703,-3.923 -3.855,-3.923 -2.137,0 -3.873,1.718 -3.873,3.923 0,2.171 1.736,3.909 3.873,3.909 z"
           style="fill:#000000;fill-opacity:0.594784;stroke-width:3.26006"
           id="path4175" /></g></g><path
       style="fill:#000000;fill-opacity:0.14;stroke-width:1.19119;filter:url(#filter2193)"
       d="m 3614.6316,2133.4213 c 672.5857,-236.6935 340.0263,-806.8856 577.6548,-1122.4055 174.6432,-213.7867 601.6382,-44.08348 785.6148,-247.9466 205.3612,-227.55921 185.6218,-900.64 185.6218,-900.64 L 4903.705,-395.5579 2794.4265,1154.5045 Z"
       id="path2273"
       sodipodi:nodetypes="ccacccc" /><path
       style="fill:#613583;fill-opacity:1;stroke-width:1.19119"
       d="m 3614.6316,2133.4213 c 672.5857,-236.6935 340.0263,-806.8856 577.6548,-1122.4055 174.6432,-213.7867 601.6382,-44.08348 785.6148,-247.9466 205.3612,-227.55921 185.6218,-900.64 185.6218,-900.64 L 4903.705,-395.5579 2794.4265,1154.5045 Z"
       id="path2275"
       sodipodi:nodetypes="ccacccc" /><path
       style="fill:#000000;fill-opacity:0.14;stroke-width:1.15839;filter:url(#filter2187)"
       d="m 3423.176,1807.3401 c 675.9258,-154.616 417.4059,-742.1672 681.7554,-1020.85199 192.2878,-187.32676 583.3439,22.2534 786.3746,-153.03976 C 5091.5495,460.56157 5161.5991,-118.601 5161.5991,-118.601 L 4947.2286,-494.1961 2738.5069,771.16722 Z"
       id="path2277"
       sodipodi:nodetypes="ccacccc" /><path
       style="fill:#a51d2d;fill-opacity:1;stroke-width:1.15839"
       d="m 3423.176,1807.3401 c 675.9258,-154.616 417.4059,-742.1672 681.7554,-1020.85199 192.2878,-187.32676 583.3439,22.2534 786.3746,-153.03976 C 5091.5495,460.56157 5161.5991,-118.601 5161.5991,-118.601 L 4947.2286,-494.1961 2738.5069,771.16722 Z"
       id="path2279"
       sodipodi:nodetypes="ccacccc" /><path
       style="fill:#000000;fill-opacity:0.14;stroke-width:1.1111;filter:url(#filter2181)"
       d="m 3166.2707,1353.2889 c 669.3377,-21.5038 531.2639,-617.89146 832.8296,-830.31955 216.5526,-140.13284 549.2671,127.00363 773.8154,0.0772 221.4657,-125.18402 393.5237,-653.91275 393.5237,-653.91275 L 5031.592,-521.0506 2705.7857,259.88697 Z"
       id="path2281"
       sodipodi:nodetypes="ccacccc" /><path
       style="fill:#c64600;fill-opacity:1;stroke-width:1.1111"
       d="m 3166.2707,1353.2889 c 669.3377,-21.5038 531.2639,-617.89146 832.8296,-830.31955 216.5526,-140.13284 549.2671,127.00363 773.8154,0.0772 221.4657,-125.18402 393.5237,-653.91275 393.5237,-653.91275 L 5031.592,-521.0506 2705.7857,259.88697 Z"
       id="path2283"
       sodipodi:nodetypes="ccacccc" /><path
       style="fill:#000000;fill-opacity:0.14;stroke-width:1.02869;filter:url(#filter2175)"
       d="m 3116.708,1001.1382 c 617.8165,52.1699 554.9507,-511.09329 855.0954,-674.02252 214.1984,-105.58613 491.4404,175.82752 711.5718,83.24506 217.1095,-91.3115 432.1602,-559.02264 432.1602,-559.02264 l -82.0628,-373.2973 -2222.6893,468.1385 z"
       id="path2285"
       sodipodi:nodetypes="ccacccc" /><path
       style="fill:#e5a50a;fill-opacity:1;stroke-width:1.02869"
       d="m 3116.708,1001.1382 c 617.8165,52.1699 554.9507,-511.09329 855.0954,-674.02252 214.1984,-105.58613 491.4404,175.82752 711.5718,83.24506 217.1095,-91.3115 432.1602,-559.02264 432.1602,-559.02264 l -82.0628,-373.2973 -2222.6893,468.1385 z"
       id="path2287"
       sodipodi:nodetypes="ccacccc" /><path
       style="opacity:1;fill:#000000;fill-opacity:0.14;stroke-width:0.861828;filter:url(#filter2099)"
       d="m 3250.6677,705.49235 c 515.7047,62.22963 479.9819,-411.2539 736.1721,-538.65564 182.5093,-81.97138 402.1892,150.37066 593.269,91.06249 188.5107,-58.51076 431.5615,-405.4537 431.5615,-405.4537 l -110.447,-364.6258 -1875.0179,325.2157 z"
       id="path2289"
       sodipodi:nodetypes="ccacccc" /><path
       style="fill:#26a269;fill-opacity:1;stroke-width:0.861828"
       d="m 3250.6677,705.49235 c 515.7047,62.22963 479.9819,-411.2539 736.1721,-538.65564 182.5093,-81.97138 402.1892,150.37066 593.269,91.06249 188.5107,-58.51076 431.5615,-405.4537 431.5615,-405.4537 l -110.447,-364.6258 -1875.0179,325.2157 z"
       id="path2291"
       sodipodi:nodetypes="ccacccc" /><path
       style="fill:#000000;fill-opacity:0.135957;stroke-width:0.861828;filter:url(#filter2093)"
       d="m 3121.5216,441.3422 c 504.5579,123.47119 525.7295,-350.88577 795.32,-446.72737 191.0042,-59.55113 380.8811,194.94899 578.1163,161.37524 175.1751,-29.81864 437.1181,-305.13437 437.1181,-305.13437 l -26.1927,-421.0042 -1900.457,98.5917 z"
       id="path2293"
       sodipodi:nodetypes="ccacccc" /><path
       style="fill:#1a5fb4;fill-opacity:1;stroke-width:0.861828"
       d="m 3121.5216,441.3422 c 504.5579,123.47119 525.7295,-350.88577 795.32,-446.72737 191.0042,-59.55113 380.8811,194.94899 578.1163,161.37524 175.1751,-29.81864 437.1181,-305.13437 437.1181,-305.13437 l -26.1927,-421.0042 -1900.457,98.5917 z"
       id="path2295"
       sodipodi:nodetypes="ccacccc" /></g></svg>
